ISO-10303-21;
HEADER;
FILE_DESCRIPTION(('Project-authored engineering envelope'),'2;1');
FILE_NAME('iiot-monitor-board-engineering-envelope.step','2026-08-11T00:00:00Z',('Amin Zoroufi'),(''),'', '', '');
FILE_SCHEMA(('CONFIG_CONTROL_DESIGN'));
ENDSEC;
DATA;
#1=CARTESIAN_POINT('',(0.0000,0.0000,0.0000));
#2=CARTESIAN_POINT('',(100.0000,0.0000,0.0000));
#3=CARTESIAN_POINT('',(100.0000,70.0000,0.0000));
#4=CARTESIAN_POINT('',(0.0000,70.0000,0.0000));
#5=CARTESIAN_POINT('',(0.0000,0.0000,1.6000));
#6=CARTESIAN_POINT('',(100.0000,0.0000,1.6000));
#7=CARTESIAN_POINT('',(100.0000,70.0000,1.6000));
#8=CARTESIAN_POINT('',(0.0000,70.0000,1.6000));
#9=POLY_LOOP('',(#1,#4,#3,#2));
#10=FACE_OUTER_BOUND('',#9,.T.);
#11=FACE('',(#10));
#12=POLY_LOOP('',(#5,#6,#7,#8));
#13=FACE_OUTER_BOUND('',#12,.T.);
#14=FACE('',(#13));
#15=POLY_LOOP('',(#1,#2,#6,#5));
#16=FACE_OUTER_BOUND('',#15,.T.);
#17=FACE('',(#16));
#18=POLY_LOOP('',(#2,#3,#7,#6));
#19=FACE_OUTER_BOUND('',#18,.T.);
#20=FACE('',(#19));
#21=POLY_LOOP('',(#3,#4,#8,#7));
#22=FACE_OUTER_BOUND('',#21,.T.);
#23=FACE('',(#22));
#24=POLY_LOOP('',(#4,#1,#5,#8));
#25=FACE_OUTER_BOUND('',#24,.T.);
#26=FACE('',(#25));
#27=CLOSED_SHELL('',(#11,#14,#17,#20,#23,#26));
#28=FACETED_BREP('PCB',#27);
#29=CARTESIAN_POINT('',(2.9000,5.7500,1.6000));
#30=CARTESIAN_POINT('',(13.1000,5.7500,1.6000));
#31=CARTESIAN_POINT('',(13.1000,14.2500,1.6000));
#32=CARTESIAN_POINT('',(2.9000,14.2500,1.6000));
#33=CARTESIAN_POINT('',(2.9000,5.7500,4.6000));
#34=CARTESIAN_POINT('',(13.1000,5.7500,4.6000));
#35=CARTESIAN_POINT('',(13.1000,14.2500,4.6000));
#36=CARTESIAN_POINT('',(2.9000,14.2500,4.6000));
#37=POLY_LOOP('',(#29,#32,#31,#30));
#38=FACE_OUTER_BOUND('',#37,.T.);
#39=FACE('',(#38));
#40=POLY_LOOP('',(#33,#34,#35,#36));
#41=FACE_OUTER_BOUND('',#40,.T.);
#42=FACE('',(#41));
#43=POLY_LOOP('',(#29,#30,#34,#33));
#44=FACE_OUTER_BOUND('',#43,.T.);
#45=FACE('',(#44));
#46=POLY_LOOP('',(#30,#31,#35,#34));
#47=FACE_OUTER_BOUND('',#46,.T.);
#48=FACE('',(#47));
#49=POLY_LOOP('',(#31,#32,#36,#35));
#50=FACE_OUTER_BOUND('',#49,.T.);
#51=FACE('',(#50));
#52=POLY_LOOP('',(#32,#29,#33,#36));
#53=FACE_OUTER_BOUND('',#52,.T.);
#54=FACE('',(#53));
#55=CLOSED_SHELL('',(#39,#42,#45,#48,#51,#54));
#56=FACETED_BREP('J1-5V_INPUT',#55);
#57=CARTESIAN_POINT('',(15.7000,8.4000,1.6000));
#58=CARTESIAN_POINT('',(20.3000,8.4000,1.6000));
#59=CARTESIAN_POINT('',(20.3000,11.6000,1.6000));
#60=CARTESIAN_POINT('',(15.7000,11.6000,1.6000));
#61=CARTESIAN_POINT('',(15.7000,8.4000,4.6000));
#62=CARTESIAN_POINT('',(20.3000,8.4000,4.6000));
#63=CARTESIAN_POINT('',(20.3000,11.6000,4.6000));
#64=CARTESIAN_POINT('',(15.7000,11.6000,4.6000));
#65=POLY_LOOP('',(#57,#60,#59,#58));
#66=FACE_OUTER_BOUND('',#65,.T.);
#67=FACE('',(#66));
#68=POLY_LOOP('',(#61,#62,#63,#64));
#69=FACE_OUTER_BOUND('',#68,.T.);
#70=FACE('',(#69));
#71=POLY_LOOP('',(#57,#58,#62,#61));
#72=FACE_OUTER_BOUND('',#71,.T.);
#73=FACE('',(#72));
#74=POLY_LOOP('',(#58,#59,#63,#62));
#75=FACE_OUTER_BOUND('',#74,.T.);
#76=FACE('',(#75));
#77=POLY_LOOP('',(#59,#60,#64,#63));
#78=FACE_OUTER_BOUND('',#77,.T.);
#79=FACE('',(#78));
#80=POLY_LOOP('',(#60,#57,#61,#64));
#81=FACE_OUTER_BOUND('',#80,.T.);
#82=FACE('',(#81));
#83=CLOSED_SHELL('',(#67,#70,#73,#76,#79,#82));
#84=FACETED_BREP('F1-1_1A_PTC',#83);
#85=CARTESIAN_POINT('',(22.5000,8.5000,1.6000));
#86=CARTESIAN_POINT('',(27.5000,8.5000,1.6000));
#87=CARTESIAN_POINT('',(27.5000,11.5000,1.6000));
#88=CARTESIAN_POINT('',(22.5000,11.5000,1.6000));
#89=CARTESIAN_POINT('',(22.5000,8.5000,4.6000));
#90=CARTESIAN_POINT('',(27.5000,8.5000,4.6000));
#91=CARTESIAN_POINT('',(27.5000,11.5000,4.6000));
#92=CARTESIAN_POINT('',(22.5000,11.5000,4.6000));
#93=POLY_LOOP('',(#85,#88,#87,#86));
#94=FACE_OUTER_BOUND('',#93,.T.);
#95=FACE('',(#94));
#96=POLY_LOOP('',(#89,#90,#91,#92));
#97=FACE_OUTER_BOUND('',#96,.T.);
#98=FACE('',(#97));
#99=POLY_LOOP('',(#85,#86,#90,#89));
#100=FACE_OUTER_BOUND('',#99,.T.);
#101=FACE('',(#100));
#102=POLY_LOOP('',(#86,#87,#91,#90));
#103=FACE_OUTER_BOUND('',#102,.T.);
#104=FACE('',(#103));
#105=POLY_LOOP('',(#87,#88,#92,#91));
#106=FACE_OUTER_BOUND('',#105,.T.);
#107=FACE('',(#106));
#108=POLY_LOOP('',(#88,#85,#89,#92));
#109=FACE_OUTER_BOUND('',#108,.T.);
#110=FACE('',(#109));
#111=CLOSED_SHELL('',(#95,#98,#101,#104,#107,#110));
#112=FACETED_BREP('D1-SS34',#111);
#113=CARTESIAN_POINT('',(29.2000,8.2000,1.6000));
#114=CARTESIAN_POINT('',(34.8000,8.2000,1.6000));
#115=CARTESIAN_POINT('',(34.8000,11.8000,1.6000));
#116=CARTESIAN_POINT('',(29.2000,11.8000,1.6000));
#117=CARTESIAN_POINT('',(29.2000,8.2000,4.6000));
#118=CARTESIAN_POINT('',(34.8000,8.2000,4.6000));
#119=CARTESIAN_POINT('',(34.8000,11.8000,4.6000));
#120=CARTESIAN_POINT('',(29.2000,11.8000,4.6000));
#121=POLY_LOOP('',(#113,#116,#115,#114));
#122=FACE_OUTER_BOUND('',#121,.T.);
#123=FACE('',(#122));
#124=POLY_LOOP('',(#117,#118,#119,#120));
#125=FACE_OUTER_BOUND('',#124,.T.);
#126=FACE('',(#125));
#127=POLY_LOOP('',(#113,#114,#118,#117));
#128=FACE_OUTER_BOUND('',#127,.T.);
#129=FACE('',(#128));
#130=POLY_LOOP('',(#114,#115,#119,#118));
#131=FACE_OUTER_BOUND('',#130,.T.);
#132=FACE('',(#131));
#133=POLY_LOOP('',(#115,#116,#120,#119));
#134=FACE_OUTER_BOUND('',#133,.T.);
#135=FACE('',(#134));
#136=POLY_LOOP('',(#116,#113,#117,#120));
#137=FACE_OUTER_BOUND('',#136,.T.);
#138=FACE('',(#137));
#139=CLOSED_SHELL('',(#123,#126,#129,#132,#135,#138));
#140=FACETED_BREP('D2-SMBJ5_0A',#139);
#141=CARTESIAN_POINT('',(38.5000,8.5000,1.6000));
#142=CARTESIAN_POINT('',(41.5000,8.5000,1.6000));
#143=CARTESIAN_POINT('',(41.5000,11.5000,1.6000));
#144=CARTESIAN_POINT('',(38.5000,11.5000,1.6000));
#145=CARTESIAN_POINT('',(38.5000,8.5000,4.6000));
#146=CARTESIAN_POINT('',(41.5000,8.5000,4.6000));
#147=CARTESIAN_POINT('',(41.5000,11.5000,4.6000));
#148=CARTESIAN_POINT('',(38.5000,11.5000,4.6000));
#149=POLY_LOOP('',(#141,#144,#143,#142));
#150=FACE_OUTER_BOUND('',#149,.T.);
#151=FACE('',(#150));
#152=POLY_LOOP('',(#145,#146,#147,#148));
#153=FACE_OUTER_BOUND('',#152,.T.);
#154=FACE('',(#153));
#155=POLY_LOOP('',(#141,#142,#146,#145));
#156=FACE_OUTER_BOUND('',#155,.T.);
#157=FACE('',(#156));
#158=POLY_LOOP('',(#142,#143,#147,#146));
#159=FACE_OUTER_BOUND('',#158,.T.);
#160=FACE('',(#159));
#161=POLY_LOOP('',(#143,#144,#148,#147));
#162=FACE_OUTER_BOUND('',#161,.T.);
#163=FACE('',(#162));
#164=POLY_LOOP('',(#144,#141,#145,#148));
#165=FACE_OUTER_BOUND('',#164,.T.);
#166=FACE('',(#165));
#167=CLOSED_SHELL('',(#151,#154,#157,#160,#163,#166));
#168=FACETED_BREP('U6-AP2112K_3_3',#167);
#169=CARTESIAN_POINT('',(9.8500,12.8500,1.6000));
#170=CARTESIAN_POINT('',(18.1500,12.8500,1.6000));
#171=CARTESIAN_POINT('',(18.1500,21.1500,1.6000));
#172=CARTESIAN_POINT('',(9.8500,21.1500,1.6000));
#173=CARTESIAN_POINT('',(9.8500,12.8500,4.6000));
#174=CARTESIAN_POINT('',(18.1500,12.8500,4.6000));
#175=CARTESIAN_POINT('',(18.1500,21.1500,4.6000));
#176=CARTESIAN_POINT('',(9.8500,21.1500,4.6000));
#177=POLY_LOOP('',(#169,#172,#171,#170));
#178=FACE_OUTER_BOUND('',#177,.T.);
#179=FACE('',(#178));
#180=POLY_LOOP('',(#173,#174,#175,#176));
#181=FACE_OUTER_BOUND('',#180,.T.);
#182=FACE('',(#181));
#183=POLY_LOOP('',(#169,#170,#174,#173));
#184=FACE_OUTER_BOUND('',#183,.T.);
#185=FACE('',(#184));
#186=POLY_LOOP('',(#170,#171,#175,#174));
#187=FACE_OUTER_BOUND('',#186,.T.);
#188=FACE('',(#187));
#189=POLY_LOOP('',(#171,#172,#176,#175));
#190=FACE_OUTER_BOUND('',#189,.T.);
#191=FACE('',(#190));
#192=POLY_LOOP('',(#172,#169,#173,#176));
#193=FACE_OUTER_BOUND('',#192,.T.);
#194=FACE('',(#193));
#195=CLOSED_SHELL('',(#179,#182,#185,#188,#191,#194));
#196=FACETED_BREP('C1-100uF',#195);
#197=CARTESIAN_POINT('',(35.0000,14.3750,1.6000));
#198=CARTESIAN_POINT('',(37.0000,14.3750,1.6000));
#199=CARTESIAN_POINT('',(37.0000,15.6250,1.6000));
#200=CARTESIAN_POINT('',(35.0000,15.6250,1.6000));
#201=CARTESIAN_POINT('',(35.0000,14.3750,4.6000));
#202=CARTESIAN_POINT('',(37.0000,14.3750,4.6000));
#203=CARTESIAN_POINT('',(37.0000,15.6250,4.6000));
#204=CARTESIAN_POINT('',(35.0000,15.6250,4.6000));
#205=POLY_LOOP('',(#197,#200,#199,#198));
#206=FACE_OUTER_BOUND('',#205,.T.);
#207=FACE('',(#206));
#208=POLY_LOOP('',(#201,#202,#203,#204));
#209=FACE_OUTER_BOUND('',#208,.T.);
#210=FACE('',(#209));
#211=POLY_LOOP('',(#197,#198,#202,#201));
#212=FACE_OUTER_BOUND('',#211,.T.);
#213=FACE('',(#212));
#214=POLY_LOOP('',(#198,#199,#203,#202));
#215=FACE_OUTER_BOUND('',#214,.T.);
#216=FACE('',(#215));
#217=POLY_LOOP('',(#199,#200,#204,#203));
#218=FACE_OUTER_BOUND('',#217,.T.);
#219=FACE('',(#218));
#220=POLY_LOOP('',(#200,#197,#201,#204));
#221=FACE_OUTER_BOUND('',#220,.T.);
#222=FACE('',(#221));
#223=CLOSED_SHELL('',(#207,#210,#213,#216,#219,#222));
#224=FACETED_BREP('C2-10uF',#223);
#225=CARTESIAN_POINT('',(43.0000,14.3750,1.6000));
#226=CARTESIAN_POINT('',(45.0000,14.3750,1.6000));
#227=CARTESIAN_POINT('',(45.0000,15.6250,1.6000));
#228=CARTESIAN_POINT('',(43.0000,15.6250,1.6000));
#229=CARTESIAN_POINT('',(43.0000,14.3750,4.6000));
#230=CARTESIAN_POINT('',(45.0000,14.3750,4.6000));
#231=CARTESIAN_POINT('',(45.0000,15.6250,4.6000));
#232=CARTESIAN_POINT('',(43.0000,15.6250,4.6000));
#233=POLY_LOOP('',(#225,#228,#227,#226));
#234=FACE_OUTER_BOUND('',#233,.T.);
#235=FACE('',(#234));
#236=POLY_LOOP('',(#229,#230,#231,#232));
#237=FACE_OUTER_BOUND('',#236,.T.);
#238=FACE('',(#237));
#239=POLY_LOOP('',(#225,#226,#230,#229));
#240=FACE_OUTER_BOUND('',#239,.T.);
#241=FACE('',(#240));
#242=POLY_LOOP('',(#226,#227,#231,#230));
#243=FACE_OUTER_BOUND('',#242,.T.);
#244=FACE('',(#243));
#245=POLY_LOOP('',(#227,#228,#232,#231));
#246=FACE_OUTER_BOUND('',#245,.T.);
#247=FACE('',(#246));
#248=POLY_LOOP('',(#228,#225,#229,#232));
#249=FACE_OUTER_BOUND('',#248,.T.);
#250=FACE('',(#249));
#251=CLOSED_SHELL('',(#235,#238,#241,#244,#247,#250));
#252=FACETED_BREP('C3-10uF',#251);
#253=CARTESIAN_POINT('',(45.0000,11.2500,1.6000));
#254=CARTESIAN_POINT('',(63.0000,11.2500,1.6000));
#255=CARTESIAN_POINT('',(63.0000,36.7500,1.6000));
#256=CARTESIAN_POINT('',(45.0000,36.7500,1.6000));
#257=CARTESIAN_POINT('',(45.0000,11.2500,7.6000));
#258=CARTESIAN_POINT('',(63.0000,11.2500,7.6000));
#259=CARTESIAN_POINT('',(63.0000,36.7500,7.6000));
#260=CARTESIAN_POINT('',(45.0000,36.7500,7.6000));
#261=POLY_LOOP('',(#253,#256,#255,#254));
#262=FACE_OUTER_BOUND('',#261,.T.);
#263=FACE('',(#262));
#264=POLY_LOOP('',(#257,#258,#259,#260));
#265=FACE_OUTER_BOUND('',#264,.T.);
#266=FACE('',(#265));
#267=POLY_LOOP('',(#253,#254,#258,#257));
#268=FACE_OUTER_BOUND('',#267,.T.);
#269=FACE('',(#268));
#270=POLY_LOOP('',(#254,#255,#259,#258));
#271=FACE_OUTER_BOUND('',#270,.T.);
#272=FACE('',(#271));
#273=POLY_LOOP('',(#255,#256,#260,#259));
#274=FACE_OUTER_BOUND('',#273,.T.);
#275=FACE('',(#274));
#276=POLY_LOOP('',(#256,#253,#257,#260));
#277=FACE_OUTER_BOUND('',#276,.T.);
#278=FACE('',(#277));
#279=CLOSED_SHELL('',(#263,#266,#269,#272,#275,#278));
#280=FACETED_BREP('U1-ESP32_WROOM_32E',#279);
#281=CARTESIAN_POINT('',(41.4000,23.2000,1.6000));
#282=CARTESIAN_POINT('',(44.6000,23.2000,1.6000));
#283=CARTESIAN_POINT('',(44.6000,24.8000,1.6000));
#284=CARTESIAN_POINT('',(41.4000,24.8000,1.6000));
#285=CARTESIAN_POINT('',(41.4000,23.2000,4.6000));
#286=CARTESIAN_POINT('',(44.6000,23.2000,4.6000));
#287=CARTESIAN_POINT('',(44.6000,24.8000,4.6000));
#288=CARTESIAN_POINT('',(41.4000,24.8000,4.6000));
#289=POLY_LOOP('',(#281,#284,#283,#282));
#290=FACE_OUTER_BOUND('',#289,.T.);
#291=FACE('',(#290));
#292=POLY_LOOP('',(#285,#286,#287,#288));
#293=FACE_OUTER_BOUND('',#292,.T.);
#294=FACE('',(#293));
#295=POLY_LOOP('',(#281,#282,#286,#285));
#296=FACE_OUTER_BOUND('',#295,.T.);
#297=FACE('',(#296));
#298=POLY_LOOP('',(#282,#283,#287,#286));
#299=FACE_OUTER_BOUND('',#298,.T.);
#300=FACE('',(#299));
#301=POLY_LOOP('',(#283,#284,#288,#287));
#302=FACE_OUTER_BOUND('',#301,.T.);
#303=FACE('',(#302));
#304=POLY_LOOP('',(#284,#281,#285,#288));
#305=FACE_OUTER_BOUND('',#304,.T.);
#306=FACE('',(#305));
#307=CLOSED_SHELL('',(#291,#294,#297,#300,#303,#306));
#308=FACETED_BREP('C4-22uF',#307);
#309=CARTESIAN_POINT('',(42.2000,27.6000,1.6000));
#310=CARTESIAN_POINT('',(43.8000,27.6000,1.6000));
#311=CARTESIAN_POINT('',(43.8000,28.4000,1.6000));
#312=CARTESIAN_POINT('',(42.2000,28.4000,1.6000));
#313=CARTESIAN_POINT('',(42.2000,27.6000,4.6000));
#314=CARTESIAN_POINT('',(43.8000,27.6000,4.6000));
#315=CARTESIAN_POINT('',(43.8000,28.4000,4.6000));
#316=CARTESIAN_POINT('',(42.2000,28.4000,4.6000));
#317=POLY_LOOP('',(#309,#312,#311,#310));
#318=FACE_OUTER_BOUND('',#317,.T.);
#319=FACE('',(#318));
#320=POLY_LOOP('',(#313,#314,#315,#316));
#321=FACE_OUTER_BOUND('',#320,.T.);
#322=FACE('',(#321));
#323=POLY_LOOP('',(#309,#310,#314,#313));
#324=FACE_OUTER_BOUND('',#323,.T.);
#325=FACE('',(#324));
#326=POLY_LOOP('',(#310,#311,#315,#314));
#327=FACE_OUTER_BOUND('',#326,.T.);
#328=FACE('',(#327));
#329=POLY_LOOP('',(#311,#312,#316,#315));
#330=FACE_OUTER_BOUND('',#329,.T.);
#331=FACE('',(#330));
#332=POLY_LOOP('',(#312,#309,#313,#316));
#333=FACE_OUTER_BOUND('',#332,.T.);
#334=FACE('',(#333));
#335=CLOSED_SHELL('',(#319,#322,#325,#328,#331,#334));
#336=FACETED_BREP('C5-100nF',#335);
#337=CARTESIAN_POINT('',(43.2000,32.6000,1.6000));
#338=CARTESIAN_POINT('',(44.8000,32.6000,1.6000));
#339=CARTESIAN_POINT('',(44.8000,33.4000,1.6000));
#340=CARTESIAN_POINT('',(43.2000,33.4000,1.6000));
#341=CARTESIAN_POINT('',(43.2000,32.6000,4.6000));
#342=CARTESIAN_POINT('',(44.8000,32.6000,4.6000));
#343=CARTESIAN_POINT('',(44.8000,33.4000,4.6000));
#344=CARTESIAN_POINT('',(43.2000,33.4000,4.6000));
#345=POLY_LOOP('',(#337,#340,#339,#338));
#346=FACE_OUTER_BOUND('',#345,.T.);
#347=FACE('',(#346));
#348=POLY_LOOP('',(#341,#342,#343,#344));
#349=FACE_OUTER_BOUND('',#348,.T.);
#350=FACE('',(#349));
#351=POLY_LOOP('',(#337,#338,#342,#341));
#352=FACE_OUTER_BOUND('',#351,.T.);
#353=FACE('',(#352));
#354=POLY_LOOP('',(#338,#339,#343,#342));
#355=FACE_OUTER_BOUND('',#354,.T.);
#356=FACE('',(#355));
#357=POLY_LOOP('',(#339,#340,#344,#343));
#358=FACE_OUTER_BOUND('',#357,.T.);
#359=FACE('',(#358));
#360=POLY_LOOP('',(#340,#337,#341,#344));
#361=FACE_OUTER_BOUND('',#360,.T.);
#362=FACE('',(#361));
#363=CLOSED_SHELL('',(#347,#350,#353,#356,#359,#362));
#364=FACETED_BREP('R1-10k',#363);
#365=CARTESIAN_POINT('',(43.2000,35.6000,1.6000));
#366=CARTESIAN_POINT('',(44.8000,35.6000,1.6000));
#367=CARTESIAN_POINT('',(44.8000,36.4000,1.6000));
#368=CARTESIAN_POINT('',(43.2000,36.4000,1.6000));
#369=CARTESIAN_POINT('',(43.2000,35.6000,4.6000));
#370=CARTESIAN_POINT('',(44.8000,35.6000,4.6000));
#371=CARTESIAN_POINT('',(44.8000,36.4000,4.6000));
#372=CARTESIAN_POINT('',(43.2000,36.4000,4.6000));
#373=POLY_LOOP('',(#365,#368,#367,#366));
#374=FACE_OUTER_BOUND('',#373,.T.);
#375=FACE('',(#374));
#376=POLY_LOOP('',(#369,#370,#371,#372));
#377=FACE_OUTER_BOUND('',#376,.T.);
#378=FACE('',(#377));
#379=POLY_LOOP('',(#365,#366,#370,#369));
#380=FACE_OUTER_BOUND('',#379,.T.);
#381=FACE('',(#380));
#382=POLY_LOOP('',(#366,#367,#371,#370));
#383=FACE_OUTER_BOUND('',#382,.T.);
#384=FACE('',(#383));
#385=POLY_LOOP('',(#367,#368,#372,#371));
#386=FACE_OUTER_BOUND('',#385,.T.);
#387=FACE('',(#386));
#388=POLY_LOOP('',(#368,#365,#369,#372));
#389=FACE_OUTER_BOUND('',#388,.T.);
#390=FACE('',(#389));
#391=CLOSED_SHELL('',(#375,#378,#381,#384,#387,#390));
#392=FACETED_BREP('R2-10k',#391);
#393=CARTESIAN_POINT('',(77.0000,11.0000,1.6000));
#394=CARTESIAN_POINT('',(79.0000,11.0000,1.6000));
#395=CARTESIAN_POINT('',(79.0000,13.0000,1.6000));
#396=CARTESIAN_POINT('',(77.0000,13.0000,1.6000));
#397=CARTESIAN_POINT('',(77.0000,11.0000,4.6000));
#398=CARTESIAN_POINT('',(79.0000,11.0000,4.6000));
#399=CARTESIAN_POINT('',(79.0000,13.0000,4.6000));
#400=CARTESIAN_POINT('',(77.0000,13.0000,4.6000));
#401=POLY_LOOP('',(#393,#396,#395,#394));
#402=FACE_OUTER_BOUND('',#401,.T.);
#403=FACE('',(#402));
#404=POLY_LOOP('',(#397,#398,#399,#400));
#405=FACE_OUTER_BOUND('',#404,.T.);
#406=FACE('',(#405));
#407=POLY_LOOP('',(#393,#394,#398,#397));
#408=FACE_OUTER_BOUND('',#407,.T.);
#409=FACE('',(#408));
#410=POLY_LOOP('',(#394,#395,#399,#398));
#411=FACE_OUTER_BOUND('',#410,.T.);
#412=FACE('',(#411));
#413=POLY_LOOP('',(#395,#396,#400,#399));
#414=FACE_OUTER_BOUND('',#413,.T.);
#415=FACE('',(#414));
#416=POLY_LOOP('',(#396,#393,#397,#400));
#417=FACE_OUTER_BOUND('',#416,.T.);
#418=FACE('',(#417));
#419=CLOSED_SHELL('',(#403,#406,#409,#412,#415,#418));
#420=FACETED_BREP('U2-TMP117M',#419);
#421=CARTESIAN_POINT('',(82.2000,11.6000,1.6000));
#422=CARTESIAN_POINT('',(83.8000,11.6000,1.6000));
#423=CARTESIAN_POINT('',(83.8000,12.4000,1.6000));
#424=CARTESIAN_POINT('',(82.2000,12.4000,1.6000));
#425=CARTESIAN_POINT('',(82.2000,11.6000,4.6000));
#426=CARTESIAN_POINT('',(83.8000,11.6000,4.6000));
#427=CARTESIAN_POINT('',(83.8000,12.4000,4.6000));
#428=CARTESIAN_POINT('',(82.2000,12.4000,4.6000));
#429=POLY_LOOP('',(#421,#424,#423,#422));
#430=FACE_OUTER_BOUND('',#429,.T.);
#431=FACE('',(#430));
#432=POLY_LOOP('',(#425,#426,#427,#428));
#433=FACE_OUTER_BOUND('',#432,.T.);
#434=FACE('',(#433));
#435=POLY_LOOP('',(#421,#422,#426,#425));
#436=FACE_OUTER_BOUND('',#435,.T.);
#437=FACE('',(#436));
#438=POLY_LOOP('',(#422,#423,#427,#426));
#439=FACE_OUTER_BOUND('',#438,.T.);
#440=FACE('',(#439));
#441=POLY_LOOP('',(#423,#424,#428,#427));
#442=FACE_OUTER_BOUND('',#441,.T.);
#443=FACE('',(#442));
#444=POLY_LOOP('',(#424,#421,#425,#428));
#445=FACE_OUTER_BOUND('',#444,.T.);
#446=FACE('',(#445));
#447=CLOSED_SHELL('',(#431,#434,#437,#440,#443,#446));
#448=FACETED_BREP('C6-100nF',#447);
#449=CARTESIAN_POINT('',(76.5000,21.5000,1.6000));
#450=CARTESIAN_POINT('',(79.5000,21.5000,1.6000));
#451=CARTESIAN_POINT('',(79.5000,24.5000,1.6000));
#452=CARTESIAN_POINT('',(76.5000,24.5000,1.6000));
#453=CARTESIAN_POINT('',(76.5000,21.5000,4.6000));
#454=CARTESIAN_POINT('',(79.5000,21.5000,4.6000));
#455=CARTESIAN_POINT('',(79.5000,24.5000,4.6000));
#456=CARTESIAN_POINT('',(76.5000,24.5000,4.6000));
#457=POLY_LOOP('',(#449,#452,#451,#450));
#458=FACE_OUTER_BOUND('',#457,.T.);
#459=FACE('',(#458));
#460=POLY_LOOP('',(#453,#454,#455,#456));
#461=FACE_OUTER_BOUND('',#460,.T.);
#462=FACE('',(#461));
#463=POLY_LOOP('',(#449,#450,#454,#453));
#464=FACE_OUTER_BOUND('',#463,.T.);
#465=FACE('',(#464));
#466=POLY_LOOP('',(#450,#451,#455,#454));
#467=FACE_OUTER_BOUND('',#466,.T.);
#468=FACE('',(#467));
#469=POLY_LOOP('',(#451,#452,#456,#455));
#470=FACE_OUTER_BOUND('',#469,.T.);
#471=FACE('',(#470));
#472=POLY_LOOP('',(#452,#449,#453,#456));
#473=FACE_OUTER_BOUND('',#472,.T.);
#474=FACE('',(#473));
#475=CLOSED_SHELL('',(#459,#462,#465,#468,#471,#474));
#476=FACETED_BREP('U3-INA219A',#475);
#477=CARTESIAN_POINT('',(84.8000,21.4000,1.6000));
#478=CARTESIAN_POINT('',(91.2000,21.4000,1.6000));
#479=CARTESIAN_POINT('',(91.2000,24.6000,1.6000));
#480=CARTESIAN_POINT('',(84.8000,24.6000,1.6000));
#481=CARTESIAN_POINT('',(84.8000,21.4000,4.6000));
#482=CARTESIAN_POINT('',(91.2000,21.4000,4.6000));
#483=CARTESIAN_POINT('',(91.2000,24.6000,4.6000));
#484=CARTESIAN_POINT('',(84.8000,24.6000,4.6000));
#485=POLY_LOOP('',(#477,#480,#479,#478));
#486=FACE_OUTER_BOUND('',#485,.T.);
#487=FACE('',(#486));
#488=POLY_LOOP('',(#481,#482,#483,#484));
#489=FACE_OUTER_BOUND('',#488,.T.);
#490=FACE('',(#489));
#491=POLY_LOOP('',(#477,#478,#482,#481));
#492=FACE_OUTER_BOUND('',#491,.T.);
#493=FACE('',(#492));
#494=POLY_LOOP('',(#478,#479,#483,#482));
#495=FACE_OUTER_BOUND('',#494,.T.);
#496=FACE('',(#495));
#497=POLY_LOOP('',(#479,#480,#484,#483));
#498=FACE_OUTER_BOUND('',#497,.T.);
#499=FACE('',(#498));
#500=POLY_LOOP('',(#480,#477,#481,#484));
#501=FACE_OUTER_BOUND('',#500,.T.);
#502=FACE('',(#501));
#503=CLOSED_SHELL('',(#487,#490,#493,#496,#499,#502));
#504=FACETED_BREP('R3-0_05R_1',#503);
#505=CARTESIAN_POINT('',(77.2000,27.6000,1.6000));
#506=CARTESIAN_POINT('',(78.8000,27.6000,1.6000));
#507=CARTESIAN_POINT('',(78.8000,28.4000,1.6000));
#508=CARTESIAN_POINT('',(77.2000,28.4000,1.6000));
#509=CARTESIAN_POINT('',(77.2000,27.6000,4.6000));
#510=CARTESIAN_POINT('',(78.8000,27.6000,4.6000));
#511=CARTESIAN_POINT('',(78.8000,28.4000,4.6000));
#512=CARTESIAN_POINT('',(77.2000,28.4000,4.6000));
#513=POLY_LOOP('',(#505,#508,#507,#506));
#514=FACE_OUTER_BOUND('',#513,.T.);
#515=FACE('',(#514));
#516=POLY_LOOP('',(#509,#510,#511,#512));
#517=FACE_OUTER_BOUND('',#516,.T.);
#518=FACE('',(#517));
#519=POLY_LOOP('',(#505,#506,#510,#509));
#520=FACE_OUTER_BOUND('',#519,.T.);
#521=FACE('',(#520));
#522=POLY_LOOP('',(#506,#507,#511,#510));
#523=FACE_OUTER_BOUND('',#522,.T.);
#524=FACE('',(#523));
#525=POLY_LOOP('',(#507,#508,#512,#511));
#526=FACE_OUTER_BOUND('',#525,.T.);
#527=FACE('',(#526));
#528=POLY_LOOP('',(#508,#505,#509,#512));
#529=FACE_OUTER_BOUND('',#528,.T.);
#530=FACE('',(#529));
#531=CLOSED_SHELL('',(#515,#518,#521,#524,#527,#530));
#532=FACETED_BREP('C7-100nF',#531);
#533=CARTESIAN_POINT('',(86.9000,7.7500,1.6000));
#534=CARTESIAN_POINT('',(97.1000,7.7500,1.6000));
#535=CARTESIAN_POINT('',(97.1000,16.2500,1.6000));
#536=CARTESIAN_POINT('',(86.9000,16.2500,1.6000));
#537=CARTESIAN_POINT('',(86.9000,7.7500,4.6000));
#538=CARTESIAN_POINT('',(97.1000,7.7500,4.6000));
#539=CARTESIAN_POINT('',(97.1000,16.2500,4.6000));
#540=CARTESIAN_POINT('',(86.9000,16.2500,4.6000));
#541=POLY_LOOP('',(#533,#536,#535,#534));
#542=FACE_OUTER_BOUND('',#541,.T.);
#543=FACE('',(#542));
#544=POLY_LOOP('',(#537,#538,#539,#540));
#545=FACE_OUTER_BOUND('',#544,.T.);
#546=FACE('',(#545));
#547=POLY_LOOP('',(#533,#534,#538,#537));
#548=FACE_OUTER_BOUND('',#547,.T.);
#549=FACE('',(#548));
#550=POLY_LOOP('',(#534,#535,#539,#538));
#551=FACE_OUTER_BOUND('',#550,.T.);
#552=FACE('',(#551));
#553=POLY_LOOP('',(#535,#536,#540,#539));
#554=FACE_OUTER_BOUND('',#553,.T.);
#555=FACE('',(#554));
#556=POLY_LOOP('',(#536,#533,#537,#540));
#557=FACE_OUTER_BOUND('',#556,.T.);
#558=FACE('',(#557));
#559=CLOSED_SHELL('',(#543,#546,#549,#552,#555,#558));
#560=FACETED_BREP('J4-CURRENT_PATH',#559);
#561=CARTESIAN_POINT('',(75.5000,36.5000,1.6000));
#562=CARTESIAN_POINT('',(80.5000,36.5000,1.6000));
#563=CARTESIAN_POINT('',(80.5000,39.5000,1.6000));
#564=CARTESIAN_POINT('',(75.5000,39.5000,1.6000));
#565=CARTESIAN_POINT('',(75.5000,36.5000,4.6000));
#566=CARTESIAN_POINT('',(80.5000,36.5000,4.6000));
#567=CARTESIAN_POINT('',(80.5000,39.5000,4.6000));
#568=CARTESIAN_POINT('',(75.5000,39.5000,4.6000));
#569=POLY_LOOP('',(#561,#564,#563,#562));
#570=FACE_OUTER_BOUND('',#569,.T.);
#571=FACE('',(#570));
#572=POLY_LOOP('',(#565,#566,#567,#568));
#573=FACE_OUTER_BOUND('',#572,.T.);
#574=FACE('',(#573));
#575=POLY_LOOP('',(#561,#562,#566,#565));
#576=FACE_OUTER_BOUND('',#575,.T.);
#577=FACE('',(#576));
#578=POLY_LOOP('',(#562,#563,#567,#566));
#579=FACE_OUTER_BOUND('',#578,.T.);
#580=FACE('',(#579));
#581=POLY_LOOP('',(#563,#564,#568,#567));
#582=FACE_OUTER_BOUND('',#581,.T.);
#583=FACE('',(#582));
#584=POLY_LOOP('',(#564,#561,#565,#568));
#585=FACE_OUTER_BOUND('',#584,.T.);
#586=FACE('',(#585));
#587=CLOSED_SHELL('',(#571,#574,#577,#580,#583,#586));
#588=FACETED_BREP('U4-ADXL345',#587);
#589=CARTESIAN_POINT('',(84.2000,35.6000,1.6000));
#590=CARTESIAN_POINT('',(85.8000,35.6000,1.6000));
#591=CARTESIAN_POINT('',(85.8000,36.4000,1.6000));
#592=CARTESIAN_POINT('',(84.2000,36.4000,1.6000));
#593=CARTESIAN_POINT('',(84.2000,35.6000,4.6000));
#594=CARTESIAN_POINT('',(85.8000,35.6000,4.6000));
#595=CARTESIAN_POINT('',(85.8000,36.4000,4.6000));
#596=CARTESIAN_POINT('',(84.2000,36.4000,4.6000));
#597=POLY_LOOP('',(#589,#592,#591,#590));
#598=FACE_OUTER_BOUND('',#597,.T.);
#599=FACE('',(#598));
#600=POLY_LOOP('',(#593,#594,#595,#596));
#601=FACE_OUTER_BOUND('',#600,.T.);
#602=FACE('',(#601));
#603=POLY_LOOP('',(#589,#590,#594,#593));
#604=FACE_OUTER_BOUND('',#603,.T.);
#605=FACE('',(#604));
#606=POLY_LOOP('',(#590,#591,#595,#594));
#607=FACE_OUTER_BOUND('',#606,.T.);
#608=FACE('',(#607));
#609=POLY_LOOP('',(#591,#592,#596,#595));
#610=FACE_OUTER_BOUND('',#609,.T.);
#611=FACE('',(#610));
#612=POLY_LOOP('',(#592,#589,#593,#596));
#613=FACE_OUTER_BOUND('',#612,.T.);
#614=FACE('',(#613));
#615=CLOSED_SHELL('',(#599,#602,#605,#608,#611,#614));
#616=FACETED_BREP('C8-100nF',#615);
#617=CARTESIAN_POINT('',(84.0000,39.3750,1.6000));
#618=CARTESIAN_POINT('',(86.0000,39.3750,1.6000));
#619=CARTESIAN_POINT('',(86.0000,40.6250,1.6000));
#620=CARTESIAN_POINT('',(84.0000,40.6250,1.6000));
#621=CARTESIAN_POINT('',(84.0000,39.3750,4.6000));
#622=CARTESIAN_POINT('',(86.0000,39.3750,4.6000));
#623=CARTESIAN_POINT('',(86.0000,40.6250,4.6000));
#624=CARTESIAN_POINT('',(84.0000,40.6250,4.6000));
#625=POLY_LOOP('',(#617,#620,#619,#618));
#626=FACE_OUTER_BOUND('',#625,.T.);
#627=FACE('',(#626));
#628=POLY_LOOP('',(#621,#622,#623,#624));
#629=FACE_OUTER_BOUND('',#628,.T.);
#630=FACE('',(#629));
#631=POLY_LOOP('',(#617,#618,#622,#621));
#632=FACE_OUTER_BOUND('',#631,.T.);
#633=FACE('',(#632));
#634=POLY_LOOP('',(#618,#619,#623,#622));
#635=FACE_OUTER_BOUND('',#634,.T.);
#636=FACE('',(#635));
#637=POLY_LOOP('',(#619,#620,#624,#623));
#638=FACE_OUTER_BOUND('',#637,.T.);
#639=FACE('',(#638));
#640=POLY_LOOP('',(#620,#617,#621,#624));
#641=FACE_OUTER_BOUND('',#640,.T.);
#642=FACE('',(#641));
#643=CLOSED_SHELL('',(#627,#630,#633,#636,#639,#642));
#644=FACETED_BREP('C9-10uF',#643);
#645=CARTESIAN_POINT('',(15.5000,39.0000,1.6000));
#646=CARTESIAN_POINT('',(20.5000,39.0000,1.6000));
#647=CARTESIAN_POINT('',(20.5000,45.0000,1.6000));
#648=CARTESIAN_POINT('',(15.5000,45.0000,1.6000));
#649=CARTESIAN_POINT('',(15.5000,39.0000,4.6000));
#650=CARTESIAN_POINT('',(20.5000,39.0000,4.6000));
#651=CARTESIAN_POINT('',(20.5000,45.0000,4.6000));
#652=CARTESIAN_POINT('',(15.5000,45.0000,4.6000));
#653=POLY_LOOP('',(#645,#648,#647,#646));
#654=FACE_OUTER_BOUND('',#653,.T.);
#655=FACE('',(#654));
#656=POLY_LOOP('',(#649,#650,#651,#652));
#657=FACE_OUTER_BOUND('',#656,.T.);
#658=FACE('',(#657));
#659=POLY_LOOP('',(#645,#646,#650,#649));
#660=FACE_OUTER_BOUND('',#659,.T.);
#661=FACE('',(#660));
#662=POLY_LOOP('',(#646,#647,#651,#650));
#663=FACE_OUTER_BOUND('',#662,.T.);
#664=FACE('',(#663));
#665=POLY_LOOP('',(#647,#648,#652,#651));
#666=FACE_OUTER_BOUND('',#665,.T.);
#667=FACE('',(#666));
#668=POLY_LOOP('',(#648,#645,#649,#652));
#669=FACE_OUTER_BOUND('',#668,.T.);
#670=FACE('',(#669));
#671=CLOSED_SHELL('',(#655,#658,#661,#664,#667,#670));
#672=FACETED_BREP('U5-MAX3485',#671);
#673=CARTESIAN_POINT('',(23.2000,41.6000,1.6000));
#674=CARTESIAN_POINT('',(24.8000,41.6000,1.6000));
#675=CARTESIAN_POINT('',(24.8000,42.4000,1.6000));
#676=CARTESIAN_POINT('',(23.2000,42.4000,1.6000));
#677=CARTESIAN_POINT('',(23.2000,41.6000,4.6000));
#678=CARTESIAN_POINT('',(24.8000,41.6000,4.6000));
#679=CARTESIAN_POINT('',(24.8000,42.4000,4.6000));
#680=CARTESIAN_POINT('',(23.2000,42.4000,4.6000));
#681=POLY_LOOP('',(#673,#676,#675,#674));
#682=FACE_OUTER_BOUND('',#681,.T.);
#683=FACE('',(#682));
#684=POLY_LOOP('',(#677,#678,#679,#680));
#685=FACE_OUTER_BOUND('',#684,.T.);
#686=FACE('',(#685));
#687=POLY_LOOP('',(#673,#674,#678,#677));
#688=FACE_OUTER_BOUND('',#687,.T.);
#689=FACE('',(#688));
#690=POLY_LOOP('',(#674,#675,#679,#678));
#691=FACE_OUTER_BOUND('',#690,.T.);
#692=FACE('',(#691));
#693=POLY_LOOP('',(#675,#676,#680,#679));
#694=FACE_OUTER_BOUND('',#693,.T.);
#695=FACE('',(#694));
#696=POLY_LOOP('',(#676,#673,#677,#680));
#697=FACE_OUTER_BOUND('',#696,.T.);
#698=FACE('',(#697));
#699=CLOSED_SHELL('',(#683,#686,#689,#692,#695,#698));
#700=FACETED_BREP('C10-100nF',#699);
#701=CARTESIAN_POINT('',(8.5000,48.5000,1.6000));
#702=CARTESIAN_POINT('',(11.5000,48.5000,1.6000));
#703=CARTESIAN_POINT('',(11.5000,51.5000,1.6000));
#704=CARTESIAN_POINT('',(8.5000,51.5000,1.6000));
#705=CARTESIAN_POINT('',(8.5000,48.5000,4.6000));
#706=CARTESIAN_POINT('',(11.5000,48.5000,4.6000));
#707=CARTESIAN_POINT('',(11.5000,51.5000,4.6000));
#708=CARTESIAN_POINT('',(8.5000,51.5000,4.6000));
#709=POLY_LOOP('',(#701,#704,#703,#702));
#710=FACE_OUTER_BOUND('',#709,.T.);
#711=FACE('',(#710));
#712=POLY_LOOP('',(#705,#706,#707,#708));
#713=FACE_OUTER_BOUND('',#712,.T.);
#714=FACE('',(#713));
#715=POLY_LOOP('',(#701,#702,#706,#705));
#716=FACE_OUTER_BOUND('',#715,.T.);
#717=FACE('',(#716));
#718=POLY_LOOP('',(#702,#703,#707,#706));
#719=FACE_OUTER_BOUND('',#718,.T.);
#720=FACE('',(#719));
#721=POLY_LOOP('',(#703,#704,#708,#707));
#722=FACE_OUTER_BOUND('',#721,.T.);
#723=FACE('',(#722));
#724=POLY_LOOP('',(#704,#701,#705,#708));
#725=FACE_OUTER_BOUND('',#724,.T.);
#726=FACE('',(#725));
#727=CLOSED_SHELL('',(#711,#714,#717,#720,#723,#726));
#728=FACETED_BREP('D3-SM712',#727);
#729=CARTESIAN_POINT('',(17.0000,49.3750,1.6000));
#730=CARTESIAN_POINT('',(19.0000,49.3750,1.6000));
#731=CARTESIAN_POINT('',(19.0000,50.6250,1.6000));
#732=CARTESIAN_POINT('',(17.0000,50.6250,1.6000));
#733=CARTESIAN_POINT('',(17.0000,49.3750,4.6000));
#734=CARTESIAN_POINT('',(19.0000,49.3750,4.6000));
#735=CARTESIAN_POINT('',(19.0000,50.6250,4.6000));
#736=CARTESIAN_POINT('',(17.0000,50.6250,4.6000));
#737=POLY_LOOP('',(#729,#732,#731,#730));
#738=FACE_OUTER_BOUND('',#737,.T.);
#739=FACE('',(#738));
#740=POLY_LOOP('',(#733,#734,#735,#736));
#741=FACE_OUTER_BOUND('',#740,.T.);
#742=FACE('',(#741));
#743=POLY_LOOP('',(#729,#730,#734,#733));
#744=FACE_OUTER_BOUND('',#743,.T.);
#745=FACE('',(#744));
#746=POLY_LOOP('',(#730,#731,#735,#734));
#747=FACE_OUTER_BOUND('',#746,.T.);
#748=FACE('',(#747));
#749=POLY_LOOP('',(#731,#732,#736,#735));
#750=FACE_OUTER_BOUND('',#749,.T.);
#751=FACE('',(#750));
#752=POLY_LOOP('',(#732,#729,#733,#736));
#753=FACE_OUTER_BOUND('',#752,.T.);
#754=FACE('',(#753));
#755=CLOSED_SHELL('',(#739,#742,#745,#748,#751,#754));
#756=FACETED_BREP('R4-120R',#755);
#757=CARTESIAN_POINT('',(21.4500,48.7500,1.6000));
#758=CARTESIAN_POINT('',(26.5500,48.7500,1.6000));
#759=CARTESIAN_POINT('',(26.5500,51.2500,1.6000));
#760=CARTESIAN_POINT('',(21.4500,51.2500,1.6000));
#761=CARTESIAN_POINT('',(21.4500,48.7500,4.6000));
#762=CARTESIAN_POINT('',(26.5500,48.7500,4.6000));
#763=CARTESIAN_POINT('',(26.5500,51.2500,4.6000));
#764=CARTESIAN_POINT('',(21.4500,51.2500,4.6000));
#765=POLY_LOOP('',(#757,#760,#759,#758));
#766=FACE_OUTER_BOUND('',#765,.T.);
#767=FACE('',(#766));
#768=POLY_LOOP('',(#761,#762,#763,#764));
#769=FACE_OUTER_BOUND('',#768,.T.);
#770=FACE('',(#769));
#771=POLY_LOOP('',(#757,#758,#762,#761));
#772=FACE_OUTER_BOUND('',#771,.T.);
#773=FACE('',(#772));
#774=POLY_LOOP('',(#758,#759,#763,#762));
#775=FACE_OUTER_BOUND('',#774,.T.);
#776=FACE('',(#775));
#777=POLY_LOOP('',(#759,#760,#764,#763));
#778=FACE_OUTER_BOUND('',#777,.T.);
#779=FACE('',(#778));
#780=POLY_LOOP('',(#760,#757,#761,#764));
#781=FACE_OUTER_BOUND('',#780,.T.);
#782=FACE('',(#781));
#783=CLOSED_SHELL('',(#767,#770,#773,#776,#779,#782));
#784=FACETED_BREP('JP1-TERM_ENABLE',#783);
#785=CARTESIAN_POINT('',(27.4500,45.7500,1.6000));
#786=CARTESIAN_POINT('',(32.5500,45.7500,1.6000));
#787=CARTESIAN_POINT('',(32.5500,48.2500,1.6000));
#788=CARTESIAN_POINT('',(27.4500,48.2500,1.6000));
#789=CARTESIAN_POINT('',(27.4500,45.7500,4.6000));
#790=CARTESIAN_POINT('',(32.5500,45.7500,4.6000));
#791=CARTESIAN_POINT('',(32.5500,48.2500,4.6000));
#792=CARTESIAN_POINT('',(27.4500,48.2500,4.6000));
#793=POLY_LOOP('',(#785,#788,#787,#786));
#794=FACE_OUTER_BOUND('',#793,.T.);
#795=FACE('',(#794));
#796=POLY_LOOP('',(#789,#790,#791,#792));
#797=FACE_OUTER_BOUND('',#796,.T.);
#798=FACE('',(#797));
#799=POLY_LOOP('',(#785,#786,#790,#789));
#800=FACE_OUTER_BOUND('',#799,.T.);
#801=FACE('',(#800));
#802=POLY_LOOP('',(#786,#787,#791,#790));
#803=FACE_OUTER_BOUND('',#802,.T.);
#804=FACE('',(#803));
#805=POLY_LOOP('',(#787,#788,#792,#791));
#806=FACE_OUTER_BOUND('',#805,.T.);
#807=FACE('',(#806));
#808=POLY_LOOP('',(#788,#785,#789,#792));
#809=FACE_OUTER_BOUND('',#808,.T.);
#810=FACE('',(#809));
#811=CLOSED_SHELL('',(#795,#798,#801,#804,#807,#810));
#812=FACETED_BREP('JP2-BIAS_A',#811);
#813=CARTESIAN_POINT('',(27.4500,51.7500,1.6000));
#814=CARTESIAN_POINT('',(32.5500,51.7500,1.6000));
#815=CARTESIAN_POINT('',(32.5500,54.2500,1.6000));
#816=CARTESIAN_POINT('',(27.4500,54.2500,1.6000));
#817=CARTESIAN_POINT('',(27.4500,51.7500,4.6000));
#818=CARTESIAN_POINT('',(32.5500,51.7500,4.6000));
#819=CARTESIAN_POINT('',(32.5500,54.2500,4.6000));
#820=CARTESIAN_POINT('',(27.4500,54.2500,4.6000));
#821=POLY_LOOP('',(#813,#816,#815,#814));
#822=FACE_OUTER_BOUND('',#821,.T.);
#823=FACE('',(#822));
#824=POLY_LOOP('',(#817,#818,#819,#820));
#825=FACE_OUTER_BOUND('',#824,.T.);
#826=FACE('',(#825));
#827=POLY_LOOP('',(#813,#814,#818,#817));
#828=FACE_OUTER_BOUND('',#827,.T.);
#829=FACE('',(#828));
#830=POLY_LOOP('',(#814,#815,#819,#818));
#831=FACE_OUTER_BOUND('',#830,.T.);
#832=FACE('',(#831));
#833=POLY_LOOP('',(#815,#816,#820,#819));
#834=FACE_OUTER_BOUND('',#833,.T.);
#835=FACE('',(#834));
#836=POLY_LOOP('',(#816,#813,#817,#820));
#837=FACE_OUTER_BOUND('',#836,.T.);
#838=FACE('',(#837));
#839=CLOSED_SHELL('',(#823,#826,#829,#832,#835,#838));
#840=FACETED_BREP('JP3-BIAS_B',#839);
#841=CARTESIAN_POINT('',(33.2000,46.6000,1.6000));
#842=CARTESIAN_POINT('',(34.8000,46.6000,1.6000));
#843=CARTESIAN_POINT('',(34.8000,47.4000,1.6000));
#844=CARTESIAN_POINT('',(33.2000,47.4000,1.6000));
#845=CARTESIAN_POINT('',(33.2000,46.6000,4.6000));
#846=CARTESIAN_POINT('',(34.8000,46.6000,4.6000));
#847=CARTESIAN_POINT('',(34.8000,47.4000,4.6000));
#848=CARTESIAN_POINT('',(33.2000,47.4000,4.6000));
#849=POLY_LOOP('',(#841,#844,#843,#842));
#850=FACE_OUTER_BOUND('',#849,.T.);
#851=FACE('',(#850));
#852=POLY_LOOP('',(#845,#846,#847,#848));
#853=FACE_OUTER_BOUND('',#852,.T.);
#854=FACE('',(#853));
#855=POLY_LOOP('',(#841,#842,#846,#845));
#856=FACE_OUTER_BOUND('',#855,.T.);
#857=FACE('',(#856));
#858=POLY_LOOP('',(#842,#843,#847,#846));
#859=FACE_OUTER_BOUND('',#858,.T.);
#860=FACE('',(#859));
#861=POLY_LOOP('',(#843,#844,#848,#847));
#862=FACE_OUTER_BOUND('',#861,.T.);
#863=FACE('',(#862));
#864=POLY_LOOP('',(#844,#841,#845,#848));
#865=FACE_OUTER_BOUND('',#864,.T.);
#866=FACE('',(#865));
#867=CLOSED_SHELL('',(#851,#854,#857,#860,#863,#866));
#868=FACETED_BREP('R5-680R',#867);
#869=CARTESIAN_POINT('',(33.2000,52.6000,1.6000));
#870=CARTESIAN_POINT('',(34.8000,52.6000,1.6000));
#871=CARTESIAN_POINT('',(34.8000,53.4000,1.6000));
#872=CARTESIAN_POINT('',(33.2000,53.4000,1.6000));
#873=CARTESIAN_POINT('',(33.2000,52.6000,4.6000));
#874=CARTESIAN_POINT('',(34.8000,52.6000,4.6000));
#875=CARTESIAN_POINT('',(34.8000,53.4000,4.6000));
#876=CARTESIAN_POINT('',(33.2000,53.4000,4.6000));
#877=POLY_LOOP('',(#869,#872,#871,#870));
#878=FACE_OUTER_BOUND('',#877,.T.);
#879=FACE('',(#878));
#880=POLY_LOOP('',(#873,#874,#875,#876));
#881=FACE_OUTER_BOUND('',#880,.T.);
#882=FACE('',(#881));
#883=POLY_LOOP('',(#869,#870,#874,#873));
#884=FACE_OUTER_BOUND('',#883,.T.);
#885=FACE('',(#884));
#886=POLY_LOOP('',(#870,#871,#875,#874));
#887=FACE_OUTER_BOUND('',#886,.T.);
#888=FACE('',(#887));
#889=POLY_LOOP('',(#871,#872,#876,#875));
#890=FACE_OUTER_BOUND('',#889,.T.);
#891=FACE('',(#890));
#892=POLY_LOOP('',(#872,#869,#873,#876));
#893=FACE_OUTER_BOUND('',#892,.T.);
#894=FACE('',(#893));
#895=CLOSED_SHELL('',(#879,#882,#885,#888,#891,#894));
#896=FACETED_BREP('R6-680R',#895);
#897=CARTESIAN_POINT('',(0.3500,56.7500,1.6000));
#898=CARTESIAN_POINT('',(15.6500,56.7500,1.6000));
#899=CARTESIAN_POINT('',(15.6500,65.2500,1.6000));
#900=CARTESIAN_POINT('',(0.3500,65.2500,1.6000));
#901=CARTESIAN_POINT('',(0.3500,56.7500,4.6000));
#902=CARTESIAN_POINT('',(15.6500,56.7500,4.6000));
#903=CARTESIAN_POINT('',(15.6500,65.2500,4.6000));
#904=CARTESIAN_POINT('',(0.3500,65.2500,4.6000));
#905=POLY_LOOP('',(#897,#900,#899,#898));
#906=FACE_OUTER_BOUND('',#905,.T.);
#907=FACE('',(#906));
#908=POLY_LOOP('',(#901,#902,#903,#904));
#909=FACE_OUTER_BOUND('',#908,.T.);
#910=FACE('',(#909));
#911=POLY_LOOP('',(#897,#898,#902,#901));
#912=FACE_OUTER_BOUND('',#911,.T.);
#913=FACE('',(#912));
#914=POLY_LOOP('',(#898,#899,#903,#902));
#915=FACE_OUTER_BOUND('',#914,.T.);
#916=FACE('',(#915));
#917=POLY_LOOP('',(#899,#900,#904,#903));
#918=FACE_OUTER_BOUND('',#917,.T.);
#919=FACE('',(#918));
#920=POLY_LOOP('',(#900,#897,#901,#904));
#921=FACE_OUTER_BOUND('',#920,.T.);
#922=FACE('',(#921));
#923=CLOSED_SHELL('',(#907,#910,#913,#916,#919,#922));
#924=FACETED_BREP('J2-MODBUS_A_B_GND',#923);
#925=CARTESIAN_POINT('',(56.5000,49.5000,1.6000));
#926=CARTESIAN_POINT('',(59.5000,49.5000,1.6000));
#927=CARTESIAN_POINT('',(59.5000,52.5000,1.6000));
#928=CARTESIAN_POINT('',(56.5000,52.5000,1.6000));
#929=CARTESIAN_POINT('',(56.5000,49.5000,4.6000));
#930=CARTESIAN_POINT('',(59.5000,49.5000,4.6000));
#931=CARTESIAN_POINT('',(59.5000,52.5000,4.6000));
#932=CARTESIAN_POINT('',(56.5000,52.5000,4.6000));
#933=POLY_LOOP('',(#925,#928,#927,#926));
#934=FACE_OUTER_BOUND('',#933,.T.);
#935=FACE('',(#934));
#936=POLY_LOOP('',(#929,#930,#931,#932));
#937=FACE_OUTER_BOUND('',#936,.T.);
#938=FACE('',(#937));
#939=POLY_LOOP('',(#925,#926,#930,#929));
#940=FACE_OUTER_BOUND('',#939,.T.);
#941=FACE('',(#940));
#942=POLY_LOOP('',(#926,#927,#931,#930));
#943=FACE_OUTER_BOUND('',#942,.T.);
#944=FACE('',(#943));
#945=POLY_LOOP('',(#927,#928,#932,#931));
#946=FACE_OUTER_BOUND('',#945,.T.);
#947=FACE('',(#946));
#948=POLY_LOOP('',(#928,#925,#929,#932));
#949=FACE_OUTER_BOUND('',#948,.T.);
#950=FACE('',(#949));
#951=CLOSED_SHELL('',(#935,#938,#941,#944,#947,#950));
#952=FACETED_BREP('Q1-AO3400A',#951);
#953=CARTESIAN_POINT('',(49.2000,50.6000,1.6000));
#954=CARTESIAN_POINT('',(50.8000,50.6000,1.6000));
#955=CARTESIAN_POINT('',(50.8000,51.4000,1.6000));
#956=CARTESIAN_POINT('',(49.2000,51.4000,1.6000));
#957=CARTESIAN_POINT('',(49.2000,50.6000,4.6000));
#958=CARTESIAN_POINT('',(50.8000,50.6000,4.6000));
#959=CARTESIAN_POINT('',(50.8000,51.4000,4.6000));
#960=CARTESIAN_POINT('',(49.2000,51.4000,4.6000));
#961=POLY_LOOP('',(#953,#956,#955,#954));
#962=FACE_OUTER_BOUND('',#961,.T.);
#963=FACE('',(#962));
#964=POLY_LOOP('',(#957,#958,#959,#960));
#965=FACE_OUTER_BOUND('',#964,.T.);
#966=FACE('',(#965));
#967=POLY_LOOP('',(#953,#954,#958,#957));
#968=FACE_OUTER_BOUND('',#967,.T.);
#969=FACE('',(#968));
#970=POLY_LOOP('',(#954,#955,#959,#958));
#971=FACE_OUTER_BOUND('',#970,.T.);
#972=FACE('',(#971));
#973=POLY_LOOP('',(#955,#956,#960,#959));
#974=FACE_OUTER_BOUND('',#973,.T.);
#975=FACE('',(#974));
#976=POLY_LOOP('',(#956,#953,#957,#960));
#977=FACE_OUTER_BOUND('',#976,.T.);
#978=FACE('',(#977));
#979=CLOSED_SHELL('',(#963,#966,#969,#972,#975,#978));
#980=FACETED_BREP('R7-100R',#979);
#981=CARTESIAN_POINT('',(54.2000,55.6000,1.6000));
#982=CARTESIAN_POINT('',(55.8000,55.6000,1.6000));
#983=CARTESIAN_POINT('',(55.8000,56.4000,1.6000));
#984=CARTESIAN_POINT('',(54.2000,56.4000,1.6000));
#985=CARTESIAN_POINT('',(54.2000,55.6000,4.6000));
#986=CARTESIAN_POINT('',(55.8000,55.6000,4.6000));
#987=CARTESIAN_POINT('',(55.8000,56.4000,4.6000));
#988=CARTESIAN_POINT('',(54.2000,56.4000,4.6000));
#989=POLY_LOOP('',(#981,#984,#983,#982));
#990=FACE_OUTER_BOUND('',#989,.T.);
#991=FACE('',(#990));
#992=POLY_LOOP('',(#985,#986,#987,#988));
#993=FACE_OUTER_BOUND('',#992,.T.);
#994=FACE('',(#993));
#995=POLY_LOOP('',(#981,#982,#986,#985));
#996=FACE_OUTER_BOUND('',#995,.T.);
#997=FACE('',(#996));
#998=POLY_LOOP('',(#982,#983,#987,#986));
#999=FACE_OUTER_BOUND('',#998,.T.);
#1000=FACE('',(#999));
#1001=POLY_LOOP('',(#983,#984,#988,#987));
#1002=FACE_OUTER_BOUND('',#1001,.T.);
#1003=FACE('',(#1002));
#1004=POLY_LOOP('',(#984,#981,#985,#988));
#1005=FACE_OUTER_BOUND('',#1004,.T.);
#1006=FACE('',(#1005));
#1007=CLOSED_SHELL('',(#991,#994,#997,#1000,#1003,#1006));
#1008=FACETED_BREP('R8-100k',#1007);
#1009=CARTESIAN_POINT('',(64.5000,49.5000,1.6000));
#1010=CARTESIAN_POINT('',(69.5000,49.5000,1.6000));
#1011=CARTESIAN_POINT('',(69.5000,52.5000,1.6000));
#1012=CARTESIAN_POINT('',(64.5000,52.5000,1.6000));
#1013=CARTESIAN_POINT('',(64.5000,49.5000,4.6000));
#1014=CARTESIAN_POINT('',(69.5000,49.5000,4.6000));
#1015=CARTESIAN_POINT('',(69.5000,52.5000,4.6000));
#1016=CARTESIAN_POINT('',(64.5000,52.5000,4.6000));
#1017=POLY_LOOP('',(#1009,#1012,#1011,#1010));
#1018=FACE_OUTER_BOUND('',#1017,.T.);
#1019=FACE('',(#1018));
#1020=POLY_LOOP('',(#1013,#1014,#1015,#1016));
#1021=FACE_OUTER_BOUND('',#1020,.T.);
#1022=FACE('',(#1021));
#1023=POLY_LOOP('',(#1009,#1010,#1014,#1013));
#1024=FACE_OUTER_BOUND('',#1023,.T.);
#1025=FACE('',(#1024));
#1026=POLY_LOOP('',(#1010,#1011,#1015,#1014));
#1027=FACE_OUTER_BOUND('',#1026,.T.);
#1028=FACE('',(#1027));
#1029=POLY_LOOP('',(#1011,#1012,#1016,#1015));
#1030=FACE_OUTER_BOUND('',#1029,.T.);
#1031=FACE('',(#1030));
#1032=POLY_LOOP('',(#1012,#1009,#1013,#1016));
#1033=FACE_OUTER_BOUND('',#1032,.T.);
#1034=FACE('',(#1033));
#1035=CLOSED_SHELL('',(#1019,#1022,#1025,#1028,#1031,#1034));
#1036=FACETED_BREP('D4-SS14',#1035);
#1037=CARTESIAN_POINT('',(71.0000,50.7500,1.6000));
#1038=CARTESIAN_POINT('',(81.0000,50.7500,1.6000));
#1039=CARTESIAN_POINT('',(81.0000,57.2500,1.6000));
#1040=CARTESIAN_POINT('',(71.0000,57.2500,1.6000));
#1041=CARTESIAN_POINT('',(71.0000,50.7500,7.6000));
#1042=CARTESIAN_POINT('',(81.0000,50.7500,7.6000));
#1043=CARTESIAN_POINT('',(81.0000,57.2500,7.6000));
#1044=CARTESIAN_POINT('',(71.0000,57.2500,7.6000));
#1045=POLY_LOOP('',(#1037,#1040,#1039,#1038));
#1046=FACE_OUTER_BOUND('',#1045,.T.);
#1047=FACE('',(#1046));
#1048=POLY_LOOP('',(#1041,#1042,#1043,#1044));
#1049=FACE_OUTER_BOUND('',#1048,.T.);
#1050=FACE('',(#1049));
#1051=POLY_LOOP('',(#1037,#1038,#1042,#1041));
#1052=FACE_OUTER_BOUND('',#1051,.T.);
#1053=FACE('',(#1052));
#1054=POLY_LOOP('',(#1038,#1039,#1043,#1042));
#1055=FACE_OUTER_BOUND('',#1054,.T.);
#1056=FACE('',(#1055));
#1057=POLY_LOOP('',(#1039,#1040,#1044,#1043));
#1058=FACE_OUTER_BOUND('',#1057,.T.);
#1059=FACE('',(#1058));
#1060=POLY_LOOP('',(#1040,#1037,#1041,#1044));
#1061=FACE_OUTER_BOUND('',#1060,.T.);
#1062=FACE('',(#1061));
#1063=CLOSED_SHELL('',(#1047,#1050,#1053,#1056,#1059,#1062));
#1064=FACETED_BREP('K1-G5V_1_DC5',#1063);
#1065=CARTESIAN_POINT('',(86.9000,52.7500,1.6000));
#1066=CARTESIAN_POINT('',(97.1000,52.7500,1.6000));
#1067=CARTESIAN_POINT('',(97.1000,61.2500,1.6000));
#1068=CARTESIAN_POINT('',(86.9000,61.2500,1.6000));
#1069=CARTESIAN_POINT('',(86.9000,52.7500,4.6000));
#1070=CARTESIAN_POINT('',(97.1000,52.7500,4.6000));
#1071=CARTESIAN_POINT('',(97.1000,61.2500,4.6000));
#1072=CARTESIAN_POINT('',(86.9000,61.2500,4.6000));
#1073=POLY_LOOP('',(#1065,#1068,#1067,#1066));
#1074=FACE_OUTER_BOUND('',#1073,.T.);
#1075=FACE('',(#1074));
#1076=POLY_LOOP('',(#1069,#1070,#1071,#1072));
#1077=FACE_OUTER_BOUND('',#1076,.T.);
#1078=FACE('',(#1077));
#1079=POLY_LOOP('',(#1065,#1066,#1070,#1069));
#1080=FACE_OUTER_BOUND('',#1079,.T.);
#1081=FACE('',(#1080));
#1082=POLY_LOOP('',(#1066,#1067,#1071,#1070));
#1083=FACE_OUTER_BOUND('',#1082,.T.);
#1084=FACE('',(#1083));
#1085=POLY_LOOP('',(#1067,#1068,#1072,#1071));
#1086=FACE_OUTER_BOUND('',#1085,.T.);
#1087=FACE('',(#1086));
#1088=POLY_LOOP('',(#1068,#1065,#1069,#1072));
#1089=FACE_OUTER_BOUND('',#1088,.T.);
#1090=FACE('',(#1089));
#1091=CLOSED_SHELL('',(#1075,#1078,#1081,#1084,#1087,#1090));
#1092=FACETED_BREP('J3-RELAY_COM_NO',#1091);
#1093=CARTESIAN_POINT('',(36.6500,59.7500,1.6000));
#1094=CARTESIAN_POINT('',(49.3500,59.7500,1.6000));
#1095=CARTESIAN_POINT('',(49.3500,62.2500,1.6000));
#1096=CARTESIAN_POINT('',(36.6500,62.2500,1.6000));
#1097=CARTESIAN_POINT('',(36.6500,59.7500,4.6000));
#1098=CARTESIAN_POINT('',(49.3500,59.7500,4.6000));
#1099=CARTESIAN_POINT('',(49.3500,62.2500,4.6000));
#1100=CARTESIAN_POINT('',(36.6500,62.2500,4.6000));
#1101=POLY_LOOP('',(#1093,#1096,#1095,#1094));
#1102=FACE_OUTER_BOUND('',#1101,.T.);
#1103=FACE('',(#1102));
#1104=POLY_LOOP('',(#1097,#1098,#1099,#1100));
#1105=FACE_OUTER_BOUND('',#1104,.T.);
#1106=FACE('',(#1105));
#1107=POLY_LOOP('',(#1093,#1094,#1098,#1097));
#1108=FACE_OUTER_BOUND('',#1107,.T.);
#1109=FACE('',(#1108));
#1110=POLY_LOOP('',(#1094,#1095,#1099,#1098));
#1111=FACE_OUTER_BOUND('',#1110,.T.);
#1112=FACE('',(#1111));
#1113=POLY_LOOP('',(#1095,#1096,#1100,#1099));
#1114=FACE_OUTER_BOUND('',#1113,.T.);
#1115=FACE('',(#1114));
#1116=POLY_LOOP('',(#1096,#1093,#1097,#1100));
#1117=FACE_OUTER_BOUND('',#1116,.T.);
#1118=FACE('',(#1117));
#1119=CLOSED_SHELL('',(#1103,#1106,#1109,#1112,#1115,#1118));
#1120=FACETED_BREP('J5-UART_PROGRAM',#1119);
#1121=CARTESIAN_POINT('',(47.0000,9.0000,1.6000));
#1122=CARTESIAN_POINT('',(49.0000,9.0000,1.6000));
#1123=CARTESIAN_POINT('',(49.0000,11.0000,1.6000));
#1124=CARTESIAN_POINT('',(47.0000,11.0000,1.6000));
#1125=CARTESIAN_POINT('',(47.0000,9.0000,4.6000));
#1126=CARTESIAN_POINT('',(49.0000,9.0000,4.6000));
#1127=CARTESIAN_POINT('',(49.0000,11.0000,4.6000));
#1128=CARTESIAN_POINT('',(47.0000,11.0000,4.6000));
#1129=POLY_LOOP('',(#1121,#1124,#1123,#1122));
#1130=FACE_OUTER_BOUND('',#1129,.T.);
#1131=FACE('',(#1130));
#1132=POLY_LOOP('',(#1125,#1126,#1127,#1128));
#1133=FACE_OUTER_BOUND('',#1132,.T.);
#1134=FACE('',(#1133));
#1135=POLY_LOOP('',(#1121,#1122,#1126,#1125));
#1136=FACE_OUTER_BOUND('',#1135,.T.);
#1137=FACE('',(#1136));
#1138=POLY_LOOP('',(#1122,#1123,#1127,#1126));
#1139=FACE_OUTER_BOUND('',#1138,.T.);
#1140=FACE('',(#1139));
#1141=POLY_LOOP('',(#1123,#1124,#1128,#1127));
#1142=FACE_OUTER_BOUND('',#1141,.T.);
#1143=FACE('',(#1142));
#1144=POLY_LOOP('',(#1124,#1121,#1125,#1128));
#1145=FACE_OUTER_BOUND('',#1144,.T.);
#1146=FACE('',(#1145));
#1147=CLOSED_SHELL('',(#1131,#1134,#1137,#1140,#1143,#1146));
#1148=FACETED_BREP('TP1-3V3',#1147);
#1149=CARTESIAN_POINT('',(51.0000,9.0000,1.6000));
#1150=CARTESIAN_POINT('',(53.0000,9.0000,1.6000));
#1151=CARTESIAN_POINT('',(53.0000,11.0000,1.6000));
#1152=CARTESIAN_POINT('',(51.0000,11.0000,1.6000));
#1153=CARTESIAN_POINT('',(51.0000,9.0000,4.6000));
#1154=CARTESIAN_POINT('',(53.0000,9.0000,4.6000));
#1155=CARTESIAN_POINT('',(53.0000,11.0000,4.6000));
#1156=CARTESIAN_POINT('',(51.0000,11.0000,4.6000));
#1157=POLY_LOOP('',(#1149,#1152,#1151,#1150));
#1158=FACE_OUTER_BOUND('',#1157,.T.);
#1159=FACE('',(#1158));
#1160=POLY_LOOP('',(#1153,#1154,#1155,#1156));
#1161=FACE_OUTER_BOUND('',#1160,.T.);
#1162=FACE('',(#1161));
#1163=POLY_LOOP('',(#1149,#1150,#1154,#1153));
#1164=FACE_OUTER_BOUND('',#1163,.T.);
#1165=FACE('',(#1164));
#1166=POLY_LOOP('',(#1150,#1151,#1155,#1154));
#1167=FACE_OUTER_BOUND('',#1166,.T.);
#1168=FACE('',(#1167));
#1169=POLY_LOOP('',(#1151,#1152,#1156,#1155));
#1170=FACE_OUTER_BOUND('',#1169,.T.);
#1171=FACE('',(#1170));
#1172=POLY_LOOP('',(#1152,#1149,#1153,#1156));
#1173=FACE_OUTER_BOUND('',#1172,.T.);
#1174=FACE('',(#1173));
#1175=CLOSED_SHELL('',(#1159,#1162,#1165,#1168,#1171,#1174));
#1176=FACETED_BREP('TP2-GND',#1175);
#1177=CARTESIAN_POINT('',(87.0000,33.0000,1.6000));
#1178=CARTESIAN_POINT('',(89.0000,33.0000,1.6000));
#1179=CARTESIAN_POINT('',(89.0000,35.0000,1.6000));
#1180=CARTESIAN_POINT('',(87.0000,35.0000,1.6000));
#1181=CARTESIAN_POINT('',(87.0000,33.0000,4.6000));
#1182=CARTESIAN_POINT('',(89.0000,33.0000,4.6000));
#1183=CARTESIAN_POINT('',(89.0000,35.0000,4.6000));
#1184=CARTESIAN_POINT('',(87.0000,35.0000,4.6000));
#1185=POLY_LOOP('',(#1177,#1180,#1179,#1178));
#1186=FACE_OUTER_BOUND('',#1185,.T.);
#1187=FACE('',(#1186));
#1188=POLY_LOOP('',(#1181,#1182,#1183,#1184));
#1189=FACE_OUTER_BOUND('',#1188,.T.);
#1190=FACE('',(#1189));
#1191=POLY_LOOP('',(#1177,#1178,#1182,#1181));
#1192=FACE_OUTER_BOUND('',#1191,.T.);
#1193=FACE('',(#1192));
#1194=POLY_LOOP('',(#1178,#1179,#1183,#1182));
#1195=FACE_OUTER_BOUND('',#1194,.T.);
#1196=FACE('',(#1195));
#1197=POLY_LOOP('',(#1179,#1180,#1184,#1183));
#1198=FACE_OUTER_BOUND('',#1197,.T.);
#1199=FACE('',(#1198));
#1200=POLY_LOOP('',(#1180,#1177,#1181,#1184));
#1201=FACE_OUTER_BOUND('',#1200,.T.);
#1202=FACE('',(#1201));
#1203=CLOSED_SHELL('',(#1187,#1190,#1193,#1196,#1199,#1202));
#1204=FACETED_BREP('TP3-SDA',#1203);
#1205=CARTESIAN_POINT('',(91.0000,33.0000,1.6000));
#1206=CARTESIAN_POINT('',(93.0000,33.0000,1.6000));
#1207=CARTESIAN_POINT('',(93.0000,35.0000,1.6000));
#1208=CARTESIAN_POINT('',(91.0000,35.0000,1.6000));
#1209=CARTESIAN_POINT('',(91.0000,33.0000,4.6000));
#1210=CARTESIAN_POINT('',(93.0000,33.0000,4.6000));
#1211=CARTESIAN_POINT('',(93.0000,35.0000,4.6000));
#1212=CARTESIAN_POINT('',(91.0000,35.0000,4.6000));
#1213=POLY_LOOP('',(#1205,#1208,#1207,#1206));
#1214=FACE_OUTER_BOUND('',#1213,.T.);
#1215=FACE('',(#1214));
#1216=POLY_LOOP('',(#1209,#1210,#1211,#1212));
#1217=FACE_OUTER_BOUND('',#1216,.T.);
#1218=FACE('',(#1217));
#1219=POLY_LOOP('',(#1205,#1206,#1210,#1209));
#1220=FACE_OUTER_BOUND('',#1219,.T.);
#1221=FACE('',(#1220));
#1222=POLY_LOOP('',(#1206,#1207,#1211,#1210));
#1223=FACE_OUTER_BOUND('',#1222,.T.);
#1224=FACE('',(#1223));
#1225=POLY_LOOP('',(#1207,#1208,#1212,#1211));
#1226=FACE_OUTER_BOUND('',#1225,.T.);
#1227=FACE('',(#1226));
#1228=POLY_LOOP('',(#1208,#1205,#1209,#1212));
#1229=FACE_OUTER_BOUND('',#1228,.T.);
#1230=FACE('',(#1229));
#1231=CLOSED_SHELL('',(#1215,#1218,#1221,#1224,#1227,#1230));
#1232=FACETED_BREP('TP4-SCL',#1231);
#1233=CARTESIAN_POINT('',(11.0000,39.0000,1.6000));
#1234=CARTESIAN_POINT('',(13.0000,39.0000,1.6000));
#1235=CARTESIAN_POINT('',(13.0000,41.0000,1.6000));
#1236=CARTESIAN_POINT('',(11.0000,41.0000,1.6000));
#1237=CARTESIAN_POINT('',(11.0000,39.0000,4.6000));
#1238=CARTESIAN_POINT('',(13.0000,39.0000,4.6000));
#1239=CARTESIAN_POINT('',(13.0000,41.0000,4.6000));
#1240=CARTESIAN_POINT('',(11.0000,41.0000,4.6000));
#1241=POLY_LOOP('',(#1233,#1236,#1235,#1234));
#1242=FACE_OUTER_BOUND('',#1241,.T.);
#1243=FACE('',(#1242));
#1244=POLY_LOOP('',(#1237,#1238,#1239,#1240));
#1245=FACE_OUTER_BOUND('',#1244,.T.);
#1246=FACE('',(#1245));
#1247=POLY_LOOP('',(#1233,#1234,#1238,#1237));
#1248=FACE_OUTER_BOUND('',#1247,.T.);
#1249=FACE('',(#1248));
#1250=POLY_LOOP('',(#1234,#1235,#1239,#1238));
#1251=FACE_OUTER_BOUND('',#1250,.T.);
#1252=FACE('',(#1251));
#1253=POLY_LOOP('',(#1235,#1236,#1240,#1239));
#1254=FACE_OUTER_BOUND('',#1253,.T.);
#1255=FACE('',(#1254));
#1256=POLY_LOOP('',(#1236,#1233,#1237,#1240));
#1257=FACE_OUTER_BOUND('',#1256,.T.);
#1258=FACE('',(#1257));
#1259=CLOSED_SHELL('',(#1243,#1246,#1249,#1252,#1255,#1258));
#1260=FACETED_BREP('TP5-RS485_A',#1259);
#1261=CARTESIAN_POINT('',(11.0000,43.0000,1.6000));
#1262=CARTESIAN_POINT('',(13.0000,43.0000,1.6000));
#1263=CARTESIAN_POINT('',(13.0000,45.0000,1.6000));
#1264=CARTESIAN_POINT('',(11.0000,45.0000,1.6000));
#1265=CARTESIAN_POINT('',(11.0000,43.0000,4.6000));
#1266=CARTESIAN_POINT('',(13.0000,43.0000,4.6000));
#1267=CARTESIAN_POINT('',(13.0000,45.0000,4.6000));
#1268=CARTESIAN_POINT('',(11.0000,45.0000,4.6000));
#1269=POLY_LOOP('',(#1261,#1264,#1263,#1262));
#1270=FACE_OUTER_BOUND('',#1269,.T.);
#1271=FACE('',(#1270));
#1272=POLY_LOOP('',(#1265,#1266,#1267,#1268));
#1273=FACE_OUTER_BOUND('',#1272,.T.);
#1274=FACE('',(#1273));
#1275=POLY_LOOP('',(#1261,#1262,#1266,#1265));
#1276=FACE_OUTER_BOUND('',#1275,.T.);
#1277=FACE('',(#1276));
#1278=POLY_LOOP('',(#1262,#1263,#1267,#1266));
#1279=FACE_OUTER_BOUND('',#1278,.T.);
#1280=FACE('',(#1279));
#1281=POLY_LOOP('',(#1263,#1264,#1268,#1267));
#1282=FACE_OUTER_BOUND('',#1281,.T.);
#1283=FACE('',(#1282));
#1284=POLY_LOOP('',(#1264,#1261,#1265,#1268));
#1285=FACE_OUTER_BOUND('',#1284,.T.);
#1286=FACE('',(#1285));
#1287=CLOSED_SHELL('',(#1271,#1274,#1277,#1280,#1283,#1286));
#1288=FACETED_BREP('TP6-RS485_B',#1287);
ENDSEC;
END-ISO-10303-21;
