ISO-10303-21;
HEADER;
FILE_DESCRIPTION(('Project-authored engineering envelope'),'2;1');
FILE_NAME('iiot-enclosure-assembly.step','2026-08-11T00:00:00Z',('Amin Zoroufi'),(''),'', '', '');
FILE_SCHEMA(('CONFIG_CONTROL_DESIGN'));
ENDSEC;
DATA;
#1=CARTESIAN_POINT('',(0.0000,0.0000,0.0000));
#2=CARTESIAN_POINT('',(108.0000,0.0000,0.0000));
#3=CARTESIAN_POINT('',(108.0000,78.0000,0.0000));
#4=CARTESIAN_POINT('',(0.0000,78.0000,0.0000));
#5=CARTESIAN_POINT('',(0.0000,0.0000,3.0000));
#6=CARTESIAN_POINT('',(108.0000,0.0000,3.0000));
#7=CARTESIAN_POINT('',(108.0000,78.0000,3.0000));
#8=CARTESIAN_POINT('',(0.0000,78.0000,3.0000));
#9=POLY_LOOP('',(#1,#4,#3,#2));
#10=FACE_OUTER_BOUND('',#9,.T.);
#11=FACE('',(#10));
#12=POLY_LOOP('',(#5,#6,#7,#8));
#13=FACE_OUTER_BOUND('',#12,.T.);
#14=FACE('',(#13));
#15=POLY_LOOP('',(#1,#2,#6,#5));
#16=FACE_OUTER_BOUND('',#15,.T.);
#17=FACE('',(#16));
#18=POLY_LOOP('',(#2,#3,#7,#6));
#19=FACE_OUTER_BOUND('',#18,.T.);
#20=FACE('',(#19));
#21=POLY_LOOP('',(#3,#4,#8,#7));
#22=FACE_OUTER_BOUND('',#21,.T.);
#23=FACE('',(#22));
#24=POLY_LOOP('',(#4,#1,#5,#8));
#25=FACE_OUTER_BOUND('',#24,.T.);
#26=FACE('',(#25));
#27=CLOSED_SHELL('',(#11,#14,#17,#20,#23,#26));
#28=FACETED_BREP('base-0',#27);
#29=CARTESIAN_POINT('',(0.0000,0.0000,3.0000));
#30=CARTESIAN_POINT('',(2.4000,0.0000,3.0000));
#31=CARTESIAN_POINT('',(2.4000,78.0000,3.0000));
#32=CARTESIAN_POINT('',(0.0000,78.0000,3.0000));
#33=CARTESIAN_POINT('',(0.0000,0.0000,31.0000));
#34=CARTESIAN_POINT('',(2.4000,0.0000,31.0000));
#35=CARTESIAN_POINT('',(2.4000,78.0000,31.0000));
#36=CARTESIAN_POINT('',(0.0000,78.0000,31.0000));
#37=POLY_LOOP('',(#29,#32,#31,#30));
#38=FACE_OUTER_BOUND('',#37,.T.);
#39=FACE('',(#38));
#40=POLY_LOOP('',(#33,#34,#35,#36));
#41=FACE_OUTER_BOUND('',#40,.T.);
#42=FACE('',(#41));
#43=POLY_LOOP('',(#29,#30,#34,#33));
#44=FACE_OUTER_BOUND('',#43,.T.);
#45=FACE('',(#44));
#46=POLY_LOOP('',(#30,#31,#35,#34));
#47=FACE_OUTER_BOUND('',#46,.T.);
#48=FACE('',(#47));
#49=POLY_LOOP('',(#31,#32,#36,#35));
#50=FACE_OUTER_BOUND('',#49,.T.);
#51=FACE('',(#50));
#52=POLY_LOOP('',(#32,#29,#33,#36));
#53=FACE_OUTER_BOUND('',#52,.T.);
#54=FACE('',(#53));
#55=CLOSED_SHELL('',(#39,#42,#45,#48,#51,#54));
#56=FACETED_BREP('base-1',#55);
#57=CARTESIAN_POINT('',(105.6000,0.0000,3.0000));
#58=CARTESIAN_POINT('',(108.0000,0.0000,3.0000));
#59=CARTESIAN_POINT('',(108.0000,78.0000,3.0000));
#60=CARTESIAN_POINT('',(105.6000,78.0000,3.0000));
#61=CARTESIAN_POINT('',(105.6000,0.0000,31.0000));
#62=CARTESIAN_POINT('',(108.0000,0.0000,31.0000));
#63=CARTESIAN_POINT('',(108.0000,78.0000,31.0000));
#64=CARTESIAN_POINT('',(105.6000,78.0000,31.0000));
#65=POLY_LOOP('',(#57,#60,#59,#58));
#66=FACE_OUTER_BOUND('',#65,.T.);
#67=FACE('',(#66));
#68=POLY_LOOP('',(#61,#62,#63,#64));
#69=FACE_OUTER_BOUND('',#68,.T.);
#70=FACE('',(#69));
#71=POLY_LOOP('',(#57,#58,#62,#61));
#72=FACE_OUTER_BOUND('',#71,.T.);
#73=FACE('',(#72));
#74=POLY_LOOP('',(#58,#59,#63,#62));
#75=FACE_OUTER_BOUND('',#74,.T.);
#76=FACE('',(#75));
#77=POLY_LOOP('',(#59,#60,#64,#63));
#78=FACE_OUTER_BOUND('',#77,.T.);
#79=FACE('',(#78));
#80=POLY_LOOP('',(#60,#57,#61,#64));
#81=FACE_OUTER_BOUND('',#80,.T.);
#82=FACE('',(#81));
#83=CLOSED_SHELL('',(#67,#70,#73,#76,#79,#82));
#84=FACETED_BREP('base-2',#83);
#85=CARTESIAN_POINT('',(2.4000,0.0000,3.0000));
#86=CARTESIAN_POINT('',(105.6000,0.0000,3.0000));
#87=CARTESIAN_POINT('',(105.6000,2.4000,3.0000));
#88=CARTESIAN_POINT('',(2.4000,2.4000,3.0000));
#89=CARTESIAN_POINT('',(2.4000,0.0000,31.0000));
#90=CARTESIAN_POINT('',(105.6000,0.0000,31.0000));
#91=CARTESIAN_POINT('',(105.6000,2.4000,31.0000));
#92=CARTESIAN_POINT('',(2.4000,2.4000,31.0000));
#93=POLY_LOOP('',(#85,#88,#87,#86));
#94=FACE_OUTER_BOUND('',#93,.T.);
#95=FACE('',(#94));
#96=POLY_LOOP('',(#89,#90,#91,#92));
#97=FACE_OUTER_BOUND('',#96,.T.);
#98=FACE('',(#97));
#99=POLY_LOOP('',(#85,#86,#90,#89));
#100=FACE_OUTER_BOUND('',#99,.T.);
#101=FACE('',(#100));
#102=POLY_LOOP('',(#86,#87,#91,#90));
#103=FACE_OUTER_BOUND('',#102,.T.);
#104=FACE('',(#103));
#105=POLY_LOOP('',(#87,#88,#92,#91));
#106=FACE_OUTER_BOUND('',#105,.T.);
#107=FACE('',(#106));
#108=POLY_LOOP('',(#88,#85,#89,#92));
#109=FACE_OUTER_BOUND('',#108,.T.);
#110=FACE('',(#109));
#111=CLOSED_SHELL('',(#95,#98,#101,#104,#107,#110));
#112=FACETED_BREP('base-3',#111);
#113=CARTESIAN_POINT('',(2.4000,75.6000,3.0000));
#114=CARTESIAN_POINT('',(105.6000,75.6000,3.0000));
#115=CARTESIAN_POINT('',(105.6000,78.0000,3.0000));
#116=CARTESIAN_POINT('',(2.4000,78.0000,3.0000));
#117=CARTESIAN_POINT('',(2.4000,75.6000,31.0000));
#118=CARTESIAN_POINT('',(105.6000,75.6000,31.0000));
#119=CARTESIAN_POINT('',(105.6000,78.0000,31.0000));
#120=CARTESIAN_POINT('',(2.4000,78.0000,31.0000));
#121=POLY_LOOP('',(#113,#116,#115,#114));
#122=FACE_OUTER_BOUND('',#121,.T.);
#123=FACE('',(#122));
#124=POLY_LOOP('',(#117,#118,#119,#120));
#125=FACE_OUTER_BOUND('',#124,.T.);
#126=FACE('',(#125));
#127=POLY_LOOP('',(#113,#114,#118,#117));
#128=FACE_OUTER_BOUND('',#127,.T.);
#129=FACE('',(#128));
#130=POLY_LOOP('',(#114,#115,#119,#118));
#131=FACE_OUTER_BOUND('',#130,.T.);
#132=FACE('',(#131));
#133=POLY_LOOP('',(#115,#116,#120,#119));
#134=FACE_OUTER_BOUND('',#133,.T.);
#135=FACE('',(#134));
#136=POLY_LOOP('',(#116,#113,#117,#120));
#137=FACE_OUTER_BOUND('',#136,.T.);
#138=FACE('',(#137));
#139=CLOSED_SHELL('',(#123,#126,#129,#132,#135,#138));
#140=FACETED_BREP('base-4',#139);
#141=CARTESIAN_POINT('',(0.0000,0.0000,40.0000));
#142=CARTESIAN_POINT('',(108.0000,0.0000,40.0000));
#143=CARTESIAN_POINT('',(108.0000,78.0000,40.0000));
#144=CARTESIAN_POINT('',(0.0000,78.0000,40.0000));
#145=CARTESIAN_POINT('',(0.0000,0.0000,42.4000));
#146=CARTESIAN_POINT('',(108.0000,0.0000,42.4000));
#147=CARTESIAN_POINT('',(108.0000,78.0000,42.4000));
#148=CARTESIAN_POINT('',(0.0000,78.0000,42.4000));
#149=POLY_LOOP('',(#141,#144,#143,#142));
#150=FACE_OUTER_BOUND('',#149,.T.);
#151=FACE('',(#150));
#152=POLY_LOOP('',(#145,#146,#147,#148));
#153=FACE_OUTER_BOUND('',#152,.T.);
#154=FACE('',(#153));
#155=POLY_LOOP('',(#141,#142,#146,#145));
#156=FACE_OUTER_BOUND('',#155,.T.);
#157=FACE('',(#156));
#158=POLY_LOOP('',(#142,#143,#147,#146));
#159=FACE_OUTER_BOUND('',#158,.T.);
#160=FACE('',(#159));
#161=POLY_LOOP('',(#143,#144,#148,#147));
#162=FACE_OUTER_BOUND('',#161,.T.);
#163=FACE('',(#162));
#164=POLY_LOOP('',(#144,#141,#145,#148));
#165=FACE_OUTER_BOUND('',#164,.T.);
#166=FACE('',(#165));
#167=CLOSED_SHELL('',(#151,#154,#157,#160,#163,#166));
#168=FACETED_BREP('lid-exploded',#167);
ENDSEC;
END-ISO-10303-21;
