solid iiot_base
  facet normal 0 0 0
    outer loop
      vertex 0.0000 0.0000 0.0000
      vertex 0.0000 78.0000 0.0000
      vertex 108.0000 78.0000 0.0000
    endloop
  endfacet
  facet normal 0 0 0
    outer loop
      vertex 0.0000 0.0000 0.0000
      vertex 108.0000 78.0000 0.0000
      vertex 108.0000 0.0000 0.0000
    endloop
  endfacet
  facet normal 0 0 0
    outer loop
      vertex 0.0000 0.0000 3.0000
      vertex 108.0000 0.0000 3.0000
      vertex 108.0000 78.0000 3.0000
    endloop
  endfacet
  facet normal 0 0 0
    outer loop
      vertex 0.0000 0.0000 3.0000
      vertex 108.0000 78.0000 3.0000
      vertex 0.0000 78.0000 3.0000
    endloop
  endfacet
  facet normal 0 0 0
    outer loop
      vertex 0.0000 0.0000 0.0000
      vertex 108.0000 0.0000 0.0000
      vertex 108.0000 0.0000 3.0000
    endloop
  endfacet
  facet normal 0 0 0
    outer loop
      vertex 0.0000 0.0000 0.0000
      vertex 108.0000 0.0000 3.0000
      vertex 0.0000 0.0000 3.0000
    endloop
  endfacet
  facet normal 0 0 0
    outer loop
      vertex 108.0000 0.0000 0.0000
      vertex 108.0000 78.0000 0.0000
      vertex 108.0000 78.0000 3.0000
    endloop
  endfacet
  facet normal 0 0 0
    outer loop
      vertex 108.0000 0.0000 0.0000
      vertex 108.0000 78.0000 3.0000
      vertex 108.0000 0.0000 3.0000
    endloop
  endfacet
  facet normal 0 0 0
    outer loop
      vertex 108.0000 78.0000 0.0000
      vertex 0.0000 78.0000 0.0000
      vertex 0.0000 78.0000 3.0000
    endloop
  endfacet
  facet normal 0 0 0
    outer loop
      vertex 108.0000 78.0000 0.0000
      vertex 0.0000 78.0000 3.0000
      vertex 108.0000 78.0000 3.0000
    endloop
  endfacet
  facet normal 0 0 0
    outer loop
      vertex 0.0000 78.0000 0.0000
      vertex 0.0000 0.0000 0.0000
      vertex 0.0000 0.0000 3.0000
    endloop
  endfacet
  facet normal 0 0 0
    outer loop
      vertex 0.0000 78.0000 0.0000
      vertex 0.0000 0.0000 3.0000
      vertex 0.0000 78.0000 3.0000
    endloop
  endfacet
  facet normal 0 0 0
    outer loop
      vertex 0.0000 0.0000 3.0000
      vertex 0.0000 78.0000 3.0000
      vertex 2.4000 78.0000 3.0000
    endloop
  endfacet
  facet normal 0 0 0
    outer loop
      vertex 0.0000 0.0000 3.0000
      vertex 2.4000 78.0000 3.0000
      vertex 2.4000 0.0000 3.0000
    endloop
  endfacet
  facet normal 0 0 0
    outer loop
      vertex 0.0000 0.0000 31.0000
      vertex 2.4000 0.0000 31.0000
      vertex 2.4000 78.0000 31.0000
    endloop
  endfacet
  facet normal 0 0 0
    outer loop
      vertex 0.0000 0.0000 31.0000
      vertex 2.4000 78.0000 31.0000
      vertex 0.0000 78.0000 31.0000
    endloop
  endfacet
  facet normal 0 0 0
    outer loop
      vertex 0.0000 0.0000 3.0000
      vertex 2.4000 0.0000 3.0000
      vertex 2.4000 0.0000 31.0000
    endloop
  endfacet
  facet normal 0 0 0
    outer loop
      vertex 0.0000 0.0000 3.0000
      vertex 2.4000 0.0000 31.0000
      vertex 0.0000 0.0000 31.0000
    endloop
  endfacet
  facet normal 0 0 0
    outer loop
      vertex 2.4000 0.0000 3.0000
      vertex 2.4000 78.0000 3.0000
      vertex 2.4000 78.0000 31.0000
    endloop
  endfacet
  facet normal 0 0 0
    outer loop
      vertex 2.4000 0.0000 3.0000
      vertex 2.4000 78.0000 31.0000
      vertex 2.4000 0.0000 31.0000
    endloop
  endfacet
  facet normal 0 0 0
    outer loop
      vertex 2.4000 78.0000 3.0000
      vertex 0.0000 78.0000 3.0000
      vertex 0.0000 78.0000 31.0000
    endloop
  endfacet
  facet normal 0 0 0
    outer loop
      vertex 2.4000 78.0000 3.0000
      vertex 0.0000 78.0000 31.0000
      vertex 2.4000 78.0000 31.0000
    endloop
  endfacet
  facet normal 0 0 0
    outer loop
      vertex 0.0000 78.0000 3.0000
      vertex 0.0000 0.0000 3.0000
      vertex 0.0000 0.0000 31.0000
    endloop
  endfacet
  facet normal 0 0 0
    outer loop
      vertex 0.0000 78.0000 3.0000
      vertex 0.0000 0.0000 31.0000
      vertex 0.0000 78.0000 31.0000
    endloop
  endfacet
  facet normal 0 0 0
    outer loop
      vertex 105.6000 0.0000 3.0000
      vertex 105.6000 78.0000 3.0000
      vertex 108.0000 78.0000 3.0000
    endloop
  endfacet
  facet normal 0 0 0
    outer loop
      vertex 105.6000 0.0000 3.0000
      vertex 108.0000 78.0000 3.0000
      vertex 108.0000 0.0000 3.0000
    endloop
  endfacet
  facet normal 0 0 0
    outer loop
      vertex 105.6000 0.0000 31.0000
      vertex 108.0000 0.0000 31.0000
      vertex 108.0000 78.0000 31.0000
    endloop
  endfacet
  facet normal 0 0 0
    outer loop
      vertex 105.6000 0.0000 31.0000
      vertex 108.0000 78.0000 31.0000
      vertex 105.6000 78.0000 31.0000
    endloop
  endfacet
  facet normal 0 0 0
    outer loop
      vertex 105.6000 0.0000 3.0000
      vertex 108.0000 0.0000 3.0000
      vertex 108.0000 0.0000 31.0000
    endloop
  endfacet
  facet normal 0 0 0
    outer loop
      vertex 105.6000 0.0000 3.0000
      vertex 108.0000 0.0000 31.0000
      vertex 105.6000 0.0000 31.0000
    endloop
  endfacet
  facet normal 0 0 0
    outer loop
      vertex 108.0000 0.0000 3.0000
      vertex 108.0000 78.0000 3.0000
      vertex 108.0000 78.0000 31.0000
    endloop
  endfacet
  facet normal 0 0 0
    outer loop
      vertex 108.0000 0.0000 3.0000
      vertex 108.0000 78.0000 31.0000
      vertex 108.0000 0.0000 31.0000
    endloop
  endfacet
  facet normal 0 0 0
    outer loop
      vertex 108.0000 78.0000 3.0000
      vertex 105.6000 78.0000 3.0000
      vertex 105.6000 78.0000 31.0000
    endloop
  endfacet
  facet normal 0 0 0
    outer loop
      vertex 108.0000 78.0000 3.0000
      vertex 105.6000 78.0000 31.0000
      vertex 108.0000 78.0000 31.0000
    endloop
  endfacet
  facet normal 0 0 0
    outer loop
      vertex 105.6000 78.0000 3.0000
      vertex 105.6000 0.0000 3.0000
      vertex 105.6000 0.0000 31.0000
    endloop
  endfacet
  facet normal 0 0 0
    outer loop
      vertex 105.6000 78.0000 3.0000
      vertex 105.6000 0.0000 31.0000
      vertex 105.6000 78.0000 31.0000
    endloop
  endfacet
  facet normal 0 0 0
    outer loop
      vertex 2.4000 0.0000 3.0000
      vertex 2.4000 2.4000 3.0000
      vertex 105.6000 2.4000 3.0000
    endloop
  endfacet
  facet normal 0 0 0
    outer loop
      vertex 2.4000 0.0000 3.0000
      vertex 105.6000 2.4000 3.0000
      vertex 105.6000 0.0000 3.0000
    endloop
  endfacet
  facet normal 0 0 0
    outer loop
      vertex 2.4000 0.0000 31.0000
      vertex 105.6000 0.0000 31.0000
      vertex 105.6000 2.4000 31.0000
    endloop
  endfacet
  facet normal 0 0 0
    outer loop
      vertex 2.4000 0.0000 31.0000
      vertex 105.6000 2.4000 31.0000
      vertex 2.4000 2.4000 31.0000
    endloop
  endfacet
  facet normal 0 0 0
    outer loop
      vertex 2.4000 0.0000 3.0000
      vertex 105.6000 0.0000 3.0000
      vertex 105.6000 0.0000 31.0000
    endloop
  endfacet
  facet normal 0 0 0
    outer loop
      vertex 2.4000 0.0000 3.0000
      vertex 105.6000 0.0000 31.0000
      vertex 2.4000 0.0000 31.0000
    endloop
  endfacet
  facet normal 0 0 0
    outer loop
      vertex 105.6000 0.0000 3.0000
      vertex 105.6000 2.4000 3.0000
      vertex 105.6000 2.4000 31.0000
    endloop
  endfacet
  facet normal 0 0 0
    outer loop
      vertex 105.6000 0.0000 3.0000
      vertex 105.6000 2.4000 31.0000
      vertex 105.6000 0.0000 31.0000
    endloop
  endfacet
  facet normal 0 0 0
    outer loop
      vertex 105.6000 2.4000 3.0000
      vertex 2.4000 2.4000 3.0000
      vertex 2.4000 2.4000 31.0000
    endloop
  endfacet
  facet normal 0 0 0
    outer loop
      vertex 105.6000 2.4000 3.0000
      vertex 2.4000 2.4000 31.0000
      vertex 105.6000 2.4000 31.0000
    endloop
  endfacet
  facet normal 0 0 0
    outer loop
      vertex 2.4000 2.4000 3.0000
      vertex 2.4000 0.0000 3.0000
      vertex 2.4000 0.0000 31.0000
    endloop
  endfacet
  facet normal 0 0 0
    outer loop
      vertex 2.4000 2.4000 3.0000
      vertex 2.4000 0.0000 31.0000
      vertex 2.4000 2.4000 31.0000
    endloop
  endfacet
  facet normal 0 0 0
    outer loop
      vertex 2.4000 75.6000 3.0000
      vertex 2.4000 78.0000 3.0000
      vertex 105.6000 78.0000 3.0000
    endloop
  endfacet
  facet normal 0 0 0
    outer loop
      vertex 2.4000 75.6000 3.0000
      vertex 105.6000 78.0000 3.0000
      vertex 105.6000 75.6000 3.0000
    endloop
  endfacet
  facet normal 0 0 0
    outer loop
      vertex 2.4000 75.6000 31.0000
      vertex 105.6000 75.6000 31.0000
      vertex 105.6000 78.0000 31.0000
    endloop
  endfacet
  facet normal 0 0 0
    outer loop
      vertex 2.4000 75.6000 31.0000
      vertex 105.6000 78.0000 31.0000
      vertex 2.4000 78.0000 31.0000
    endloop
  endfacet
  facet normal 0 0 0
    outer loop
      vertex 2.4000 75.6000 3.0000
      vertex 105.6000 75.6000 3.0000
      vertex 105.6000 75.6000 31.0000
    endloop
  endfacet
  facet normal 0 0 0
    outer loop
      vertex 2.4000 75.6000 3.0000
      vertex 105.6000 75.6000 31.0000
      vertex 2.4000 75.6000 31.0000
    endloop
  endfacet
  facet normal 0 0 0
    outer loop
      vertex 105.6000 75.6000 3.0000
      vertex 105.6000 78.0000 3.0000
      vertex 105.6000 78.0000 31.0000
    endloop
  endfacet
  facet normal 0 0 0
    outer loop
      vertex 105.6000 75.6000 3.0000
      vertex 105.6000 78.0000 31.0000
      vertex 105.6000 75.6000 31.0000
    endloop
  endfacet
  facet normal 0 0 0
    outer loop
      vertex 105.6000 78.0000 3.0000
      vertex 2.4000 78.0000 3.0000
      vertex 2.4000 78.0000 31.0000
    endloop
  endfacet
  facet normal 0 0 0
    outer loop
      vertex 105.6000 78.0000 3.0000
      vertex 2.4000 78.0000 31.0000
      vertex 105.6000 78.0000 31.0000
    endloop
  endfacet
  facet normal 0 0 0
    outer loop
      vertex 2.4000 78.0000 3.0000
      vertex 2.4000 75.6000 3.0000
      vertex 2.4000 75.6000 31.0000
    endloop
  endfacet
  facet normal 0 0 0
    outer loop
      vertex 2.4000 78.0000 3.0000
      vertex 2.4000 75.6000 31.0000
      vertex 2.4000 78.0000 31.0000
    endloop
  endfacet
endsolid iiot_base
