ISO-10303-21;
HEADER;
FILE_DESCRIPTION(('Project-authored engineering envelope'),'2;1');
FILE_NAME('ESP32-WROOM-32E-envelope.step','2026-08-11T00:00:00Z',('Amin Zoroufi'),(''),'', '', '');
FILE_SCHEMA(('CONFIG_CONTROL_DESIGN'));
ENDSEC;
DATA;
#1=CARTESIAN_POINT('',(0.0000,0.0000,0.0000));
#2=CARTESIAN_POINT('',(18.0000,0.0000,0.0000));
#3=CARTESIAN_POINT('',(18.0000,25.5000,0.0000));
#4=CARTESIAN_POINT('',(0.0000,25.5000,0.0000));
#5=CARTESIAN_POINT('',(0.0000,0.0000,3.1000));
#6=CARTESIAN_POINT('',(18.0000,0.0000,3.1000));
#7=CARTESIAN_POINT('',(18.0000,25.5000,3.1000));
#8=CARTESIAN_POINT('',(0.0000,25.5000,3.1000));
#9=POLY_LOOP('',(#1,#4,#3,#2));
#10=FACE_OUTER_BOUND('',#9,.T.);
#11=FACE('',(#10));
#12=POLY_LOOP('',(#5,#6,#7,#8));
#13=FACE_OUTER_BOUND('',#12,.T.);
#14=FACE('',(#13));
#15=POLY_LOOP('',(#1,#2,#6,#5));
#16=FACE_OUTER_BOUND('',#15,.T.);
#17=FACE('',(#16));
#18=POLY_LOOP('',(#2,#3,#7,#6));
#19=FACE_OUTER_BOUND('',#18,.T.);
#20=FACE('',(#19));
#21=POLY_LOOP('',(#3,#4,#8,#7));
#22=FACE_OUTER_BOUND('',#21,.T.);
#23=FACE('',(#22));
#24=POLY_LOOP('',(#4,#1,#5,#8));
#25=FACE_OUTER_BOUND('',#24,.T.);
#26=FACE('',(#25));
#27=CLOSED_SHELL('',(#11,#14,#17,#20,#23,#26));
#28=FACETED_BREP('ESP32-WROOM-32E-envelope',#27);
ENDSEC;
END-ISO-10303-21;
